<svg id="svg" version="1.1" xmlns="http://www.w3.org/2000/svg" xmlns:xlink="http://www.w3.org/1999/xlink" width="400" height="400" viewBox="0, 0, 400,400"><g id="svgg"><path id="path0" d="M208.954 213.400 C 209.270 215.928,211.449 225.199,213.608 233.200 C 213.815 233.970,214.532 236.940,215.200 239.800 C 215.868 242.660,216.675 245.990,216.993 247.200 C 217.779 250.195,220.189 259.915,221.655 266.000 C 223.448 273.446,224.701 275.475,228.600 277.253 C 234.867 280.110,241.600 272.782,241.600 263.105 C 241.600 262.327,232.615 248.332,226.254 239.200 C 225.564 238.210,224.820 237.112,224.600 236.760 C 224.380 236.408,223.679 235.328,223.042 234.360 C 218.577 227.573,216.574 224.459,214.193 220.600 C 212.699 218.180,210.864 215.210,210.116 214.000 L 208.754 211.800 208.954 213.400 M198.891 290.460 C 194.982 294.510,190.898 298.242,184.884 303.258 C 177.523 309.399,170.893 313.510,163.600 316.457 C 161.950 317.124,160.240 317.822,159.800 318.010 C 157.059 319.177,148.350 320.800,144.828 320.800 C 143.739 320.800,142.740 320.973,142.610 321.184 C 141.983 322.198,141.952 330.958,142.555 336.600 C 146.219 370.872,164.541 392.420,193.234 396.204 C 223.497 400.196,248.410 386.697,258.206 361.000 C 258.793 359.460,259.433 357.840,259.628 357.400 C 261.224 353.795,263.337 344.278,264.069 337.400 C 264.609 332.326,264.713 323.702,264.256 321.882 C 264.016 320.925,263.794 320.800,262.338 320.800 C 250.340 320.800,235.491 313.934,221.433 301.886 C 220.350 300.959,218.953 299.819,218.326 299.353 C 216.847 298.252,208.285 289.915,206.137 287.483 C 203.954 285.012,204.278 284.879,198.891 290.460 " stroke="none" fill="#f73636" fill-rule="evenodd"></path><path id="path1" d="M63.000 69.612 C 57.890 70.625,56.339 71.060,53.715 72.220 C 42.006 77.395,33.871 85.605,27.379 98.802 C 26.625 100.334,25.025 104.825,23.602 109.400 C 22.254 113.734,22.251 125.291,23.597 129.800 C 25.229 135.266,25.887 137.042,27.419 140.109 C 32.878 151.042,42.535 161.271,54.451 168.741 C 56.513 170.034,58.605 171.218,59.100 171.373 C 59.595 171.527,60.000 171.822,60.000 172.027 C 60.000 172.232,60.214 172.400,60.476 172.400 C 60.738 172.400,62.043 172.923,63.376 173.562 C 64.709 174.201,66.455 175.010,67.256 175.360 C 69.758 176.453,78.159 179.188,79.033 179.194 C 79.492 179.197,80.001 179.335,80.166 179.499 C 80.544 179.877,84.143 180.539,91.800 181.639 C 98.585 182.614,126.000 182.871,133.600 182.030 C 135.690 181.799,141.952 181.488,147.516 181.340 C 159.090 181.032,158.255 181.321,156.751 178.149 C 153.826 171.981,154.978 172.224,127.900 172.076 C 114.171 172.001,105.200 171.804,105.200 171.578 C 105.200 171.372,106.945 169.268,109.078 166.902 C 111.211 164.536,113.523 161.970,114.216 161.200 C 114.909 160.430,117.277 157.820,119.478 155.400 C 121.679 152.980,124.272 150.108,125.240 149.017 C 126.208 147.926,128.080 145.855,129.400 144.413 C 132.077 141.491,137.117 135.886,138.320 134.495 C 139.380 133.270,145.040 127.030,146.914 125.022 C 148.825 122.975,148.745 122.458,145.768 117.546 C 143.155 113.235,136.809 103.784,135.730 102.596 C 135.329 102.154,134.280 100.898,133.400 99.805 C 130.756 96.521,127.187 92.838,123.800 89.895 C 122.040 88.367,120.150 86.723,119.600 86.242 C 105.657 74.063,79.428 66.357,63.000 69.612 M172.529 168.900 C 172.171 169.462,170.619 175.094,169.932 178.321 C 169.319 181.204,169.397 181.243,175.519 181.112 L 180.775 181.000 180.287 180.112 C 179.386 178.470,173.095 168.400,172.970 168.400 C 172.903 168.400,172.704 168.625,172.529 168.900 " stroke="none" fill="#3434f7" fill-rule="evenodd"></path><path id="path2" d="M295.800 68.654 C 291.556 69.305,284.609 70.934,282.424 71.791 C 281.007 72.346,279.679 72.800,279.471 72.800 C 277.907 72.800,266.714 78.742,262.540 81.789 C 261.628 82.455,260.378 83.360,259.764 83.800 C 255.148 87.107,247.433 95.013,243.053 100.923 C 241.528 102.980,241.731 103.493,245.886 108.073 C 247.819 110.204,250.750 113.502,252.400 115.403 C 254.050 117.304,257.020 120.607,259.000 122.744 C 260.980 124.881,263.176 127.343,263.879 128.215 C 264.583 129.087,266.363 131.060,267.836 132.600 C 269.308 134.140,271.362 136.390,272.400 137.600 C 273.439 138.810,274.898 140.448,275.644 141.240 C 276.390 142.032,278.890 144.815,281.200 147.425 C 283.510 150.035,286.574 153.437,288.008 154.985 C 289.442 156.533,292.169 159.600,294.068 161.800 C 295.966 164.000,298.617 166.874,299.960 168.187 C 304.428 172.559,305.385 172.397,275.074 172.417 C 244.835 172.438,244.829 172.439,242.395 177.209 C 240.100 181.708,240.495 182.234,246.600 182.808 C 275.677 185.544,292.687 184.791,308.623 180.063 C 312.625 178.875,323.310 173.826,325.200 172.229 C 325.530 171.950,326.070 171.601,326.400 171.454 C 335.556 167.376,348.785 151.594,353.270 139.400 C 362.896 113.225,344.242 77.967,316.533 69.965 C 312.262 68.732,300.247 67.972,295.800 68.654 M212.411 159.699 C 211.676 160.836,211.002 162.064,208.513 166.800 C 207.415 168.890,205.650 172.130,204.591 174.000 C 201.532 179.404,201.446 179.606,201.973 180.134 C 202.858 181.021,219.319 181.010,219.044 180.123 C 218.921 179.725,218.545 178.185,218.210 176.700 C 217.039 171.516,216.426 168.984,215.815 166.800 C 215.476 165.590,215.001 163.690,214.760 162.578 C 214.518 161.466,214.022 160.160,213.658 159.676 L 212.994 158.797 212.411 159.699 " stroke="none" fill="#37fa37" fill-rule="evenodd"></path><path id="path3" d="M0.000 200.000 L 0.000 400.000 200.000 400.000 L 400.000 400.000 399.933 303.300 C 399.896 250.115,399.810 207.320,399.742 208.200 C 399.674 209.080,399.429 212.590,399.197 216.000 C 398.401 227.725,395.924 242.995,393.196 253.000 C 392.716 254.760,392.081 257.100,391.784 258.200 C 391.048 260.929,387.683 271.212,387.202 272.200 C 386.988 272.640,386.201 274.620,385.453 276.600 C 384.704 278.580,383.608 281.280,383.016 282.600 C 382.424 283.920,381.660 285.630,381.318 286.400 C 380.068 289.215,375.682 297.858,374.458 299.918 C 373.766 301.082,373.200 302.112,373.200 302.207 C 373.200 302.572,367.749 311.214,364.878 315.400 C 349.135 338.352,326.729 359.359,304.261 372.231 C 302.754 373.094,300.958 374.134,300.269 374.543 C 297.018 376.472,285.202 382.181,281.400 383.659 C 280.300 384.086,278.860 384.681,278.200 384.980 C 276.228 385.874,266.903 389.182,264.673 389.779 C 263.533 390.084,261.880 390.591,261.000 390.906 C 259.635 391.395,256.150 392.237,244.652 394.855 C 242.785 395.280,240.048 395.717,235.841 396.260 C 234.557 396.426,233.969 396.373,234.134 396.107 C 234.353 395.753,235.492 395.551,240.000 395.065 C 240.550 395.006,241.270 394.846,241.600 394.708 C 241.930 394.571,242.740 394.365,243.400 394.251 C 247.805 393.484,254.764 391.831,258.000 390.783 C 258.550 390.605,260.350 390.073,262.000 389.602 C 263.650 389.130,265.360 388.587,265.800 388.396 C 266.240 388.204,267.975 387.600,269.656 387.054 C 273.109 385.931,275.936 384.820,280.800 382.675 C 282.010 382.142,283.990 381.283,285.200 380.768 C 288.651 379.297,296.136 375.393,301.510 372.261 C 304.210 370.688,306.730 369.219,307.110 368.998 C 316.257 363.665,329.471 352.999,340.020 342.433 C 347.826 334.613,351.951 329.950,357.386 322.800 C 358.473 321.370,359.471 320.110,359.602 320.000 C 359.734 319.890,361.610 317.100,363.770 313.800 C 365.930 310.500,368.216 307.030,368.849 306.088 C 369.482 305.147,370.000 304.293,370.000 304.190 C 370.000 304.087,371.334 301.617,372.964 298.701 C 375.505 294.156,379.493 286.149,380.882 282.800 C 381.111 282.250,381.522 281.350,381.796 280.800 C 382.431 279.524,386.520 268.497,387.432 265.600 C 387.813 264.390,388.264 263.040,388.434 262.600 C 389.110 260.852,391.868 250.948,392.444 248.200 C 392.628 247.320,393.065 245.250,393.415 243.600 C 393.765 241.950,394.307 239.160,394.621 237.400 C 395.124 234.574,395.494 231.810,397.187 218.200 C 399.297 201.242,397.398 174.775,392.452 152.200 C 391.004 145.593,386.545 131.277,383.978 125.000 C 378.815 112.370,374.519 103.767,367.897 92.800 C 365.470 88.780,360.318 81.208,358.549 79.061 C 358.214 78.654,357.187 77.304,356.266 76.061 C 355.345 74.817,354.204 73.350,353.730 72.800 C 353.256 72.250,351.658 70.360,350.178 68.600 C 343.456 60.606,333.812 51.301,324.200 43.534 C 321.005 40.952,312.117 34.400,311.810 34.400 C 311.721 34.400,310.202 33.410,308.435 32.200 C 306.668 30.990,305.131 30.000,305.018 30.000 C 304.906 30.000,303.604 29.259,302.124 28.354 C 300.645 27.448,297.537 25.709,295.217 24.488 C 288.074 20.729,287.981 20.673,289.400 20.991 C 290.060 21.138,290.660 21.426,290.733 21.630 C 290.807 21.833,291.141 22.000,291.476 22.000 C 292.180 22.000,300.817 26.509,302.600 27.808 C 303.260 28.288,304.115 28.792,304.499 28.928 C 306.269 29.551,317.455 37.037,323.544 41.672 C 325.169 42.910,331.781 48.431,335.409 51.581 C 337.868 53.716,347.986 63.981,350.000 66.384 C 350.990 67.566,352.882 69.808,354.203 71.366 C 366.480 85.842,380.216 109.282,386.166 125.911 C 386.735 127.500,387.671 130.105,388.247 131.700 C 390.091 136.810,393.589 148.712,394.389 152.600 C 396.688 163.771,397.301 167.241,398.173 174.000 C 398.499 176.530,398.958 181.300,399.193 184.600 C 399.427 187.900,399.676 191.230,399.746 192.000 C 399.815 192.770,399.901 149.885,399.936 96.700 L 400.000 0.000 200.000 0.000 L 0.000 0.000 0.000 200.000 M284.254 18.598 C 284.884 18.926,285.119 19.196,284.776 19.198 C 284.434 19.199,283.804 18.936,283.376 18.613 C 282.366 17.849,282.804 17.841,284.254 18.598 M287.054 19.798 C 288.250 20.421,288.033 20.559,286.500 20.148 C 286.005 20.015,285.600 19.748,285.600 19.553 C 285.600 19.081,285.719 19.101,287.054 19.798 M312.200 68.183 C 324.675 70.395,333.949 76.299,343.516 88.122 C 344.900 89.832,346.186 91.629,346.376 92.116 C 346.565 92.602,347.188 93.683,347.760 94.518 C 348.332 95.353,348.800 96.121,348.800 96.226 C 348.800 96.466,350.906 99.729,351.236 100.000 C 351.370 100.110,351.478 100.470,351.478 100.800 C 351.477 101.367,352.775 104.584,353.614 106.095 C 353.826 106.477,354.000 107.062,354.000 107.395 C 354.000 107.728,354.192 108.000,354.427 108.000 C 354.666 108.000,354.747 108.338,354.611 108.766 C 354.477 109.188,354.555 109.648,354.784 109.790 C 355.013 109.931,355.200 110.753,355.200 111.616 C 355.200 112.478,355.461 113.862,355.779 114.692 C 356.610 116.857,356.849 133.096,356.054 133.401 C 355.719 133.529,355.581 133.988,355.697 134.593 C 355.806 135.165,355.723 135.476,355.499 135.337 C 355.258 135.189,355.218 135.721,355.392 136.750 C 355.630 138.161,355.578 138.366,355.035 138.158 C 354.686 138.024,354.400 138.114,354.400 138.357 C 354.400 138.601,354.574 138.800,354.787 138.800 C 355.001 138.800,355.072 139.069,354.946 139.398 C 354.819 139.726,354.540 139.887,354.326 139.754 C 354.111 139.621,353.973 139.847,354.019 140.256 C 354.162 141.515,353.531 143.604,353.089 143.332 C 352.854 143.186,352.797 143.271,352.956 143.528 C 353.240 143.989,351.290 148.400,350.802 148.400 C 350.654 148.400,350.533 148.636,350.533 148.924 C 350.533 151.681,337.837 165.865,331.800 169.853 C 330.700 170.579,328.740 171.904,327.445 172.797 C 325.800 173.930,324.836 174.348,324.245 174.183 C 323.644 174.016,323.556 174.056,323.943 174.324 C 324.578 174.764,324.557 174.781,321.200 176.530 C 319.990 177.160,318.550 177.913,318.000 178.202 C 314.220 180.188,308.074 182.160,307.402 181.601 C 307.035 181.297,306.791 181.291,306.612 181.581 C 306.469 181.811,306.573 182.000,306.843 182.000 C 307.905 182.000,306.820 182.392,303.191 183.320 C 297.953 184.660,295.150 185.125,288.200 185.808 C 277.942 186.817,270.995 186.612,246.400 184.574 C 245.630 184.510,244.145 184.445,243.100 184.429 C 241.116 184.399,240.381 183.617,242.300 183.577 C 243.345 183.556,243.330 183.531,242.000 183.077 C 238.264 181.803,241.865 174.012,246.998 172.262 C 248.727 171.673,251.762 171.599,274.371 171.594 C 288.726 171.590,300.048 171.431,300.368 171.228 C 301.138 170.741,300.304 169.491,297.166 166.430 C 295.851 165.147,293.385 162.466,291.687 160.472 C 289.989 158.479,286.281 154.272,283.446 151.124 C 280.611 147.976,277.011 143.977,275.446 142.239 C 273.881 140.500,272.192 138.526,271.693 137.852 C 271.194 137.177,270.024 135.893,269.093 134.998 C 268.162 134.102,266.320 132.134,265.000 130.625 C 262.045 127.247,259.288 124.170,254.569 118.988 C 252.573 116.794,249.423 113.310,247.569 111.244 C 245.716 109.177,243.530 106.747,242.711 105.844 C 240.439 103.335,241.007 101.259,245.156 96.917 C 245.620 96.431,246.000 95.957,246.000 95.864 C 246.000 95.771,247.156 94.463,248.568 92.958 C 249.980 91.452,251.033 90.053,250.906 89.848 C 250.780 89.644,250.855 89.587,251.074 89.722 C 251.293 89.857,252.458 89.030,253.662 87.884 C 259.154 82.658,273.049 73.600,275.574 73.600 C 275.808 73.600,276.000 73.428,276.000 73.218 C 276.000 73.008,276.675 72.715,277.500 72.566 C 278.325 72.418,279.450 72.075,280.000 71.804 C 286.835 68.435,303.224 66.592,312.200 68.183 M80.200 68.987 C 85.024 69.658,88.320 70.303,89.400 70.785 C 89.840 70.982,90.897 71.258,91.749 71.399 C 92.601 71.539,93.591 71.806,93.949 71.992 C 94.307 72.177,95.500 72.639,96.600 73.018 C 103.348 75.344,114.623 81.553,119.200 85.464 C 119.750 85.934,121.542 87.462,123.183 88.859 C 128.475 93.366,134.113 99.510,137.623 104.595 C 138.380 105.692,139.180 106.806,139.400 107.071 C 140.892 108.867,145.789 116.497,147.781 120.132 C 149.267 122.843,149.273 122.871,148.515 123.732 C 148.095 124.210,145.872 126.684,143.576 129.230 C 141.279 131.777,138.050 135.372,136.400 137.220 C 134.750 139.067,132.578 141.484,131.573 142.590 C 130.568 143.695,129.038 145.403,128.173 146.385 C 127.308 147.367,125.340 149.535,123.800 151.203 C 122.260 152.870,119.740 155.660,118.200 157.403 C 116.660 159.145,114.320 161.755,113.000 163.202 C 111.680 164.650,109.472 167.087,108.094 168.617 L 105.589 171.400 127.678 171.503 C 141.601 171.569,149.913 171.753,150.163 172.003 C 150.382 172.222,150.947 172.400,151.420 172.400 C 153.145 172.400,155.431 174.589,157.022 177.765 C 158.808 181.332,158.835 181.280,155.106 181.468 C 112.511 183.612,98.129 183.529,85.400 181.065 C 80.210 180.060,78.243 179.591,77.505 179.184 C 77.123 178.973,76.506 178.800,76.134 178.800 C 75.272 178.800,70.324 177.183,69.820 176.736 C 69.611 176.551,69.219 176.400,68.948 176.400 C 68.677 176.400,67.289 175.860,65.863 175.200 C 64.437 174.540,63.090 174.000,62.869 174.000 C 62.648 174.000,62.407 173.865,62.333 173.700 C 62.260 173.535,60.612 172.595,58.670 171.610 C 56.729 170.626,54.839 169.588,54.470 169.303 C 54.102 169.019,52.605 167.996,51.145 167.030 C 48.308 165.153,47.901 164.831,43.221 160.760 C 34.979 153.591,28.567 144.854,25.196 136.200 C 24.201 133.645,23.600 131.675,23.600 130.967 C 23.600 130.523,23.431 129.989,23.223 129.780 C 22.061 128.607,21.997 113.301,23.138 109.502 C 24.423 105.226,24.905 103.713,25.212 103.000 C 25.401 102.560,25.937 101.300,26.403 100.200 C 31.968 87.045,42.835 75.777,53.800 71.789 C 54.900 71.390,55.980 70.934,56.200 70.776 C 56.420 70.619,57.410 70.359,58.400 70.199 C 59.390 70.039,60.380 69.793,60.600 69.654 C 62.346 68.546,74.146 68.144,80.200 68.987 M133.287 97.367 C 133.691 98.125,133.669 98.149,133.044 97.633 C 132.666 97.321,132.157 96.691,131.913 96.233 C 131.509 95.475,131.531 95.451,132.156 95.967 C 132.534 96.279,133.043 96.909,133.287 97.367 M140.307 106.000 C 140.584 106.443,140.633 106.800,140.417 106.800 C 140.203 106.800,139.835 106.440,139.600 106.000 C 139.365 105.560,139.315 105.200,139.490 105.200 C 139.665 105.200,140.032 105.560,140.307 106.000 M142.400 109.323 C 142.400 109.543,142.040 109.307,141.600 108.800 C 141.160 108.293,140.800 107.787,140.800 107.677 C 140.800 107.566,141.160 107.802,141.600 108.200 C 142.040 108.598,142.400 109.104,142.400 109.323 M146.800 116.249 C 146.800 116.552,146.980 116.800,147.200 116.800 C 147.420 116.800,147.600 116.980,147.600 117.200 C 147.600 118.060,146.936 117.531,146.326 116.186 C 145.831 115.095,145.812 114.878,146.243 115.235 C 146.549 115.490,146.800 115.946,146.800 116.249 M357.076 124.700 C 356.975 125.085,356.893 124.770,356.893 124.000 C 356.893 123.230,356.975 122.915,357.076 123.300 C 357.176 123.685,357.176 124.315,357.076 124.700 M214.047 157.500 C 214.514 158.705,220.000 180.204,220.000 180.832 C 220.000 181.045,219.415 181.345,218.700 181.498 L 217.400 181.777 218.800 182.036 C 219.570 182.178,215.790 182.291,210.400 182.287 C 205.010 182.283,201.095 182.205,201.700 182.113 C 202.305 182.022,202.800 181.766,202.800 181.545 C 202.800 181.324,202.305 181.201,201.700 181.271 C 200.185 181.449,200.073 180.258,201.374 177.811 C 201.931 176.762,202.298 175.758,202.188 175.581 C 202.078 175.403,202.306 175.156,202.694 175.031 C 203.082 174.907,203.736 173.985,204.147 172.984 C 204.558 171.982,205.121 170.936,205.397 170.660 C 205.673 170.384,206.438 169.087,207.096 167.779 C 207.754 166.470,208.928 164.196,209.704 162.724 C 210.480 161.253,211.014 159.948,210.891 159.824 C 210.768 159.701,210.844 159.600,211.060 159.600 C 211.276 159.600,211.857 158.880,212.352 158.000 C 213.420 156.100,213.495 156.078,214.047 157.500 M174.387 167.329 C 174.394 167.509,174.130 167.387,173.800 167.057 C 173.470 166.727,173.200 166.230,173.200 165.952 C 173.200 165.415,174.365 166.766,174.387 167.329 M176.991 174.101 C 177.426 174.925,177.921 175.600,178.091 175.600 C 178.261 175.600,178.400 175.787,178.400 176.016 C 178.400 176.490,180.045 178.931,180.500 179.133 C 180.665 179.207,180.800 179.462,180.800 179.702 C 180.800 179.941,181.095 180.462,181.454 180.860 C 182.521 182.038,181.340 182.174,174.855 181.619 C 167.986 181.031,168.755 181.336,169.242 179.389 C 169.460 178.515,169.887 176.810,170.190 175.600 C 170.492 174.390,171.001 172.275,171.320 170.901 C 172.382 166.326,173.104 166.733,176.991 174.101 M132.905 183.482 C 132.414 183.577,131.514 183.579,130.905 183.487 C 130.297 183.395,130.700 183.317,131.800 183.314 C 132.900 183.311,133.397 183.387,132.905 183.482 M271.278 185.498 C 273.631 185.569,277.591 185.569,280.078 185.499 C 282.565 185.429,280.640 185.371,275.800 185.370 C 270.960 185.370,268.925 185.428,271.278 185.498 M210.800 214.336 C 210.800 214.537,211.053 214.912,211.363 215.169 C 211.673 215.426,212.226 216.214,212.592 216.918 C 214.378 220.353,215.592 221.999,216.346 222.006 C 216.763 222.010,216.839 222.119,216.555 222.306 C 215.964 222.696,223.343 234.947,224.803 236.000 C 224.955 236.110,225.152 236.380,225.240 236.600 C 225.328 236.821,227.740 240.480,230.600 244.731 C 233.460 248.983,235.983 252.763,236.206 253.131 C 236.923 254.312,238.986 257.393,239.198 257.600 C 241.836 260.174,242.273 262.709,241.070 268.456 C 238.059 282.843,223.604 281.335,221.361 266.400 C 221.212 265.410,220.958 264.420,220.796 264.200 C 220.633 263.980,220.412 263.260,220.305 262.600 C 220.197 261.940,219.728 259.960,219.263 258.200 C 218.798 256.440,217.330 250.500,216.001 245.000 C 214.673 239.500,213.408 234.370,213.190 233.600 C 212.973 232.830,212.605 231.390,212.372 230.400 C 212.140 229.410,211.682 227.520,211.355 226.200 C 211.028 224.880,210.518 222.720,210.220 221.400 C 209.923 220.080,209.157 217.004,208.519 214.564 C 207.880 212.124,207.435 209.895,207.529 209.612 C 207.696 209.113,210.800 213.596,210.800 214.336 M210.719 291.520 C 214.393 295.216,218.750 299.302,220.400 300.599 C 222.050 301.896,223.490 303.061,223.600 303.189 C 223.710 303.316,224.610 304.041,225.600 304.800 C 226.590 305.559,227.490 306.287,227.600 306.419 C 227.800 306.658,233.525 310.572,235.010 311.485 C 242.322 315.978,253.055 319.629,260.676 320.216 C 265.153 320.561,264.902 320.137,265.041 327.600 C 265.228 337.684,262.731 351.378,259.133 360.000 C 257.973 362.780,257.482 363.898,256.965 364.932 C 256.654 365.555,256.404 366.275,256.408 366.532 C 256.416 366.975,257.496 364.890,259.773 360.039 C 260.330 358.850,260.903 357.230,261.045 356.439 C 261.188 355.648,261.444 354.820,261.615 354.600 C 261.785 354.380,262.052 353.345,262.208 352.300 C 262.364 351.255,262.650 350.400,262.845 350.400 C 263.040 350.400,263.200 349.770,263.200 349.000 C 263.200 348.230,263.380 347.600,263.600 347.600 C 264.106 347.600,264.098 347.704,263.360 350.600 C 263.023 351.920,262.569 353.720,262.351 354.600 C 262.133 355.480,261.784 356.371,261.577 356.580 C 261.370 356.789,261.199 357.239,261.198 357.580 C 261.196 357.921,260.926 358.716,260.598 359.346 C 260.269 359.976,260.000 360.715,260.000 360.988 C 260.000 363.862,251.781 376.599,246.470 381.956 C 242.715 385.743,241.241 386.944,236.466 390.106 C 232.635 392.642,223.765 396.114,223.249 395.279 C 223.006 394.887,222.213 394.953,219.570 395.587 C 217.716 396.031,215.660 396.408,215.000 396.425 C 212.295 396.495,212.295 397.087,215.000 397.093 C 221.317 397.108,222.267 397.806,216.400 398.122 C 202.483 398.870,200.516 398.911,200.234 398.455 C 200.031 398.127,201.080 398.000,204.000 398.000 C 206.596 398.000,207.959 397.857,207.800 397.600 C 207.372 396.908,199.617 397.091,199.345 397.800 C 199.043 398.587,197.339 398.574,191.600 397.744 C 187.570 397.160,184.921 396.400,186.920 396.400 C 188.100 396.400,187.657 395.676,186.300 395.387 C 184.138 394.927,177.932 392.800,176.007 391.859 C 173.694 390.728,169.460 388.353,169.200 388.040 C 169.090 387.908,168.100 387.183,167.000 386.428 C 156.900 379.499,146.837 362.938,144.014 348.600 C 143.754 347.280,143.373 345.570,143.168 344.800 C 142.031 340.546,141.104 322.080,141.974 321.031 C 142.231 320.722,143.874 320.414,146.107 320.257 C 158.229 319.405,170.923 314.027,181.792 305.139 C 182.236 304.776,184.400 303.006,186.600 301.205 C 190.438 298.064,197.032 291.815,201.532 287.055 C 204.160 284.276,202.914 283.670,210.719 291.520 M265.896 331.300 C 265.818 332.675,265.754 331.550,265.754 328.800 C 265.754 326.050,265.818 324.925,265.896 326.300 C 265.974 327.675,265.974 329.925,265.896 331.300 M265.489 339.300 C 265.401 340.015,265.328 339.430,265.328 338.000 C 265.328 336.570,265.401 335.985,265.489 336.700 C 265.578 337.415,265.578 338.585,265.489 339.300 M265.175 341.700 C 265.075 343.732,264.072 347.315,263.791 346.647 C 263.606 346.207,263.666 345.586,263.937 345.152 C 264.192 344.745,264.400 343.688,264.400 342.805 C 264.400 341.922,264.580 341.200,264.800 341.200 C 265.020 341.200,265.189 341.425,265.175 341.700 M252.887 372.204 C 251.976 373.632,251.410 374.800,251.628 374.800 C 251.847 374.800,252.141 374.485,252.283 374.100 C 252.425 373.715,252.654 373.310,252.792 373.200 C 253.281 372.809,254.888 369.955,254.716 369.783 C 254.620 369.687,253.797 370.776,252.887 372.204 M249.913 376.503 C 249.315 377.194,248.917 377.851,249.029 377.962 C 249.266 378.199,251.200 376.038,251.200 375.538 C 251.200 375.050,251.116 375.113,249.913 376.503 M245.321 381.600 C 243.573 383.360,242.272 384.800,242.430 384.800 C 242.735 384.800,246.884 380.822,248.166 379.300 C 249.762 377.405,248.369 378.531,245.321 381.600 M237.180 388.171 C 235.077 389.697,228.761 392.778,225.653 393.794 C 224.163 394.281,223.673 394.598,224.050 394.831 C 224.356 395.020,224.761 394.999,224.977 394.783 C 225.187 394.573,225.684 394.400,226.080 394.400 C 226.476 394.400,226.800 394.201,226.800 393.957 C 226.800 393.714,227.064 393.616,227.387 393.740 C 227.710 393.864,228.081 393.793,228.211 393.583 C 228.341 393.372,228.782 393.200,229.190 393.200 C 229.599 393.200,229.993 393.065,230.067 392.900 C 230.140 392.735,231.190 392.091,232.400 391.468 C 236.377 389.423,237.785 388.609,238.569 387.904 C 239.963 386.649,239.030 386.828,237.180 388.171 M180.000 394.000 C 180.000 394.220,179.730 394.400,179.400 394.400 C 179.070 394.400,178.800 394.220,178.800 394.000 C 178.800 393.780,179.070 393.600,179.400 393.600 C 179.730 393.600,180.000 393.780,180.000 394.000 M222.400 396.000 C 222.400 396.220,222.040 396.400,221.600 396.400 C 221.160 396.400,220.800 396.220,220.800 396.000 C 220.800 395.780,221.160 395.600,221.600 395.600 C 222.040 395.600,222.400 395.780,222.400 396.000 M188.615 396.424 C 188.743 396.631,189.423 396.800,190.126 396.800 C 190.830 396.800,192.027 396.978,192.787 397.196 C 193.617 397.434,194.313 397.447,194.532 397.228 C 194.751 397.009,194.120 396.766,192.948 396.620 C 191.877 396.485,190.411 396.302,189.691 396.211 C 188.936 396.117,188.480 396.207,188.615 396.424 M219.905 396.675 C 219.522 396.775,218.802 396.779,218.305 396.683 C 217.807 396.587,218.120 396.505,219.000 396.501 C 219.880 396.496,220.287 396.575,219.905 396.675 M232.707 396.686 C 232.106 396.777,231.026 396.779,230.307 396.690 C 229.588 396.601,230.080 396.526,231.400 396.524 C 232.720 396.522,233.308 396.595,232.707 396.686 M228.200 397.200 C 227.051 397.694,223.095 397.694,223.400 397.200 C 223.536 396.980,224.852 396.813,226.324 396.828 C 228.190 396.848,228.758 396.960,228.200 397.200 " stroke="none" fill="#fbfbfb" fill-rule="evenodd"></path><path id="path4" d="M283.376 18.613 C 283.804 18.936,284.434 19.199,284.776 19.198 C 285.119 19.196,284.884 18.926,284.254 18.598 C 282.804 17.841,282.366 17.849,283.376 18.613 M285.600 19.553 C 285.600 19.748,286.005 20.015,286.500 20.148 C 288.033 20.559,288.250 20.421,287.054 19.798 C 285.719 19.101,285.600 19.081,285.600 19.553 M289.600 21.496 C 290.370 21.921,292.898 23.268,295.217 24.488 C 297.537 25.709,300.645 27.448,302.124 28.354 C 303.604 29.259,304.906 30.000,305.018 30.000 C 305.131 30.000,306.668 30.990,308.435 32.200 C 310.202 33.410,311.721 34.400,311.810 34.400 C 312.117 34.400,321.005 40.952,324.200 43.534 C 333.812 51.301,343.456 60.606,350.178 68.600 C 351.658 70.360,353.256 72.250,353.730 72.800 C 354.204 73.350,355.345 74.817,356.266 76.061 C 357.187 77.304,358.214 78.654,358.549 79.061 C 360.318 81.208,365.470 88.780,367.897 92.800 C 374.519 103.767,378.815 112.370,383.978 125.000 C 386.545 131.277,391.004 145.593,392.452 152.200 C 397.398 174.775,399.297 201.242,397.187 218.200 C 395.494 231.810,395.124 234.574,394.621 237.400 C 394.307 239.160,393.765 241.950,393.415 243.600 C 393.065 245.250,392.628 247.320,392.444 248.200 C 391.868 250.948,389.110 260.852,388.434 262.600 C 388.264 263.040,387.813 264.390,387.432 265.600 C 386.520 268.497,382.431 279.524,381.796 280.800 C 381.522 281.350,381.111 282.250,380.882 282.800 C 379.493 286.149,375.505 294.156,372.964 298.701 C 371.334 301.617,370.000 304.087,370.000 304.190 C 370.000 304.293,369.482 305.147,368.849 306.088 C 368.216 307.030,365.930 310.500,363.770 313.800 C 361.610 317.100,359.734 319.890,359.602 320.000 C 359.471 320.110,358.473 321.370,357.386 322.800 C 347.057 336.387,332.670 350.642,319.135 360.699 C 315.632 363.302,308.841 367.988,307.110 368.998 C 306.730 369.219,304.210 370.688,301.510 372.261 C 296.136 375.393,288.651 379.297,285.200 380.768 C 283.990 381.283,282.010 382.142,280.800 382.675 C 275.936 384.820,273.109 385.931,269.656 387.054 C 267.975 387.600,266.240 388.204,265.800 388.396 C 265.360 388.587,263.650 389.130,262.000 389.602 C 260.350 390.073,258.550 390.605,258.000 390.783 C 254.764 391.831,247.805 393.484,243.400 394.251 C 242.740 394.365,241.930 394.571,241.600 394.708 C 241.270 394.846,240.550 395.006,240.000 395.065 C 235.492 395.551,234.353 395.753,234.134 396.107 C 233.969 396.373,234.557 396.426,235.841 396.260 C 240.048 395.717,242.785 395.280,244.652 394.855 C 256.150 392.237,259.635 391.395,261.000 390.906 C 261.880 390.591,263.533 390.084,264.673 389.779 C 266.903 389.182,276.228 385.874,278.200 384.980 C 278.860 384.681,280.300 384.086,281.400 383.659 C 285.202 382.181,297.018 376.472,300.269 374.543 C 300.958 374.134,302.754 373.094,304.261 372.231 C 326.729 359.359,349.135 338.352,364.878 315.400 C 367.749 311.214,373.200 302.572,373.200 302.207 C 373.200 302.112,373.766 301.082,374.458 299.918 C 375.682 297.858,380.068 289.215,381.318 286.400 C 381.660 285.630,382.424 283.920,383.016 282.600 C 383.608 281.280,384.704 278.580,385.453 276.600 C 386.201 274.620,386.988 272.640,387.202 272.200 C 387.748 271.078,391.072 260.808,392.057 257.200 C 393.822 250.738,394.093 249.648,395.040 245.200 C 400.085 221.499,401.153 197.215,398.171 174.000 C 397.305 167.258,396.691 163.788,394.389 152.600 C 393.589 148.712,390.091 136.810,388.247 131.700 C 387.671 130.105,386.735 127.500,386.166 125.911 C 380.216 109.282,366.480 85.842,354.203 71.366 C 352.882 69.808,350.990 67.566,350.000 66.384 C 347.986 63.981,337.868 53.716,335.409 51.581 C 331.781 48.431,325.169 42.910,323.544 41.672 C 317.455 37.037,306.269 29.551,304.499 28.928 C 304.115 28.792,303.260 28.288,302.600 27.808 C 300.817 26.509,292.180 22.000,291.476 22.000 C 291.141 22.000,290.807 21.833,290.733 21.630 C 290.660 21.426,290.060 21.138,289.400 20.991 C 288.209 20.724,288.210 20.728,289.600 21.496 M292.600 68.411 C 286.431 69.529,282.430 70.606,280.000 71.804 C 279.450 72.075,278.325 72.418,277.500 72.566 C 276.675 72.715,276.000 73.008,276.000 73.218 C 276.000 73.428,275.808 73.600,275.574 73.600 C 274.138 73.600,265.307 78.743,260.000 82.671 C 256.590 85.194,255.846 85.807,253.662 87.884 C 252.458 89.030,251.293 89.857,251.074 89.722 C 250.855 89.587,250.780 89.644,250.906 89.848 C 251.033 90.053,249.980 91.452,248.568 92.958 C 247.156 94.463,246.000 95.771,246.000 95.864 C 246.000 95.957,245.620 96.431,245.156 96.917 C 241.007 101.259,240.439 103.335,242.711 105.844 C 243.530 106.747,245.716 109.177,247.569 111.244 C 249.423 113.310,252.573 116.794,254.569 118.988 C 259.288 124.170,262.045 127.247,265.000 130.625 C 266.320 132.134,268.162 134.102,269.093 134.998 C 270.024 135.893,271.194 137.177,271.693 137.852 C 272.192 138.526,273.881 140.500,275.446 142.239 C 277.011 143.977,280.611 147.976,283.446 151.124 C 286.281 154.272,289.989 158.479,291.687 160.472 C 293.385 162.466,295.851 165.147,297.166 166.430 C 300.304 169.491,301.138 170.741,300.368 171.228 C 300.048 171.431,288.726 171.590,274.371 171.594 C 251.762 171.599,248.727 171.673,246.998 172.262 C 241.865 174.012,238.264 181.803,242.000 183.077 C 243.330 183.531,243.345 183.556,242.300 183.577 C 240.381 183.617,241.116 184.399,243.100 184.429 C 244.145 184.445,245.630 184.510,246.400 184.574 C 270.995 186.612,277.942 186.817,288.200 185.808 C 295.150 185.125,297.953 184.660,303.191 183.320 C 306.820 182.392,307.905 182.000,306.843 182.000 C 306.573 182.000,306.469 181.811,306.612 181.581 C 306.791 181.291,307.035 181.297,307.402 181.601 C 308.074 182.160,314.220 180.188,318.000 178.202 C 318.550 177.913,319.990 177.160,321.200 176.530 C 324.557 174.781,324.578 174.764,323.943 174.324 C 323.556 174.056,323.644 174.016,324.245 174.183 C 324.836 174.348,325.800 173.930,327.445 172.797 C 328.740 171.904,330.700 170.579,331.800 169.853 C 337.837 165.865,350.533 151.681,350.533 148.924 C 350.533 148.636,350.654 148.400,350.802 148.400 C 351.290 148.400,353.240 143.989,352.956 143.528 C 352.797 143.271,352.854 143.186,353.089 143.332 C 353.531 143.604,354.162 141.515,354.019 140.256 C 353.973 139.847,354.111 139.621,354.326 139.754 C 354.540 139.887,354.819 139.726,354.946 139.398 C 355.072 139.069,355.001 138.800,354.787 138.800 C 354.574 138.800,354.400 138.601,354.400 138.357 C 354.400 138.114,354.686 138.024,355.035 138.158 C 355.578 138.366,355.630 138.161,355.392 136.750 C 355.218 135.721,355.258 135.189,355.499 135.337 C 355.723 135.476,355.806 135.165,355.697 134.593 C 355.581 133.988,355.719 133.529,356.054 133.401 C 356.849 133.096,356.610 116.857,355.779 114.692 C 355.461 113.862,355.200 112.478,355.200 111.616 C 355.200 110.753,355.013 109.931,354.784 109.790 C 354.555 109.648,354.477 109.188,354.611 108.766 C 354.747 108.338,354.666 108.000,354.427 108.000 C 354.192 108.000,354.000 107.728,354.000 107.395 C 354.000 107.062,353.826 106.477,353.614 106.095 C 352.775 104.584,351.477 101.367,351.478 100.800 C 351.478 100.470,351.370 100.110,351.236 100.000 C 350.906 99.729,348.800 96.466,348.800 96.226 C 348.800 96.121,348.332 95.353,347.760 94.518 C 347.188 93.683,346.565 92.602,346.376 92.116 C 345.315 89.388,337.227 80.640,332.307 76.897 C 321.721 68.846,307.258 65.754,292.600 68.411 M69.717 68.697 C 71.211 68.774,73.551 68.774,74.917 68.696 C 76.282 68.618,75.060 68.555,72.200 68.555 C 69.340 68.556,68.222 68.620,69.717 68.697 M316.533 69.965 C 344.242 77.967,362.896 113.225,353.270 139.400 C 348.785 151.594,335.556 167.376,326.400 171.454 C 326.070 171.601,325.530 171.950,325.200 172.229 C 323.310 173.826,312.625 178.875,308.623 180.063 C 292.687 184.791,275.677 185.544,246.600 182.808 C 240.495 182.234,240.100 181.708,242.395 177.209 C 244.829 172.439,244.835 172.438,275.074 172.417 C 305.385 172.397,304.428 172.559,299.960 168.187 C 298.617 166.874,295.966 164.000,294.068 161.800 C 292.169 159.600,289.442 156.533,288.008 154.985 C 286.574 153.437,283.510 150.035,281.200 147.425 C 278.890 144.815,276.390 142.032,275.644 141.240 C 274.898 140.448,273.439 138.810,272.400 137.600 C 271.362 136.390,269.308 134.140,267.836 132.600 C 266.363 131.060,264.583 129.087,263.879 128.215 C 263.176 127.343,260.980 124.881,259.000 122.744 C 257.020 120.607,254.050 117.304,252.400 115.403 C 250.750 113.502,247.819 110.204,245.886 108.073 C 241.731 103.493,241.528 102.980,243.053 100.923 C 247.433 95.013,255.148 87.107,259.764 83.800 C 260.378 83.360,261.628 82.455,262.540 81.789 C 266.714 78.742,277.907 72.800,279.471 72.800 C 279.679 72.800,281.007 72.346,282.424 71.791 C 284.609 70.934,291.556 69.305,295.800 68.654 C 300.247 67.972,312.262 68.732,316.533 69.965 M62.600 69.094 C 61.720 69.182,60.820 69.431,60.600 69.647 C 60.193 70.047,62.308 69.839,65.200 69.193 C 66.825 68.830,65.684 68.787,62.600 69.094 M79.600 69.175 C 81.963 69.744,85.060 70.056,84.400 69.658 C 84.070 69.459,82.540 69.193,81.000 69.067 C 79.073 68.909,78.636 68.943,79.600 69.175 M57.600 70.288 C 57.050 70.387,56.426 70.636,56.213 70.841 C 55.759 71.279,58.274 70.871,59.200 70.357 C 59.888 69.975,59.450 69.956,57.600 70.288 M86.600 70.347 C 88.027 70.943,89.828 71.284,89.400 70.877 C 89.180 70.668,88.280 70.388,87.400 70.255 C 86.383 70.101,86.092 70.135,86.600 70.347 M53.188 71.980 C 45.052 75.290,35.661 83.535,30.958 91.500 C 29.501 93.968,30.068 93.584,31.844 90.900 C 37.699 82.053,44.014 76.686,54.000 72.072 C 56.226 71.043,55.652 70.978,53.188 71.980 M94.000 72.531 C 102.201 75.432,107.485 78.022,113.918 82.295 C 116.404 83.946,118.513 85.221,118.605 85.128 C 119.467 84.266,103.290 75.354,96.641 73.027 C 95.298 72.558,94.019 72.061,93.797 71.923 C 93.575 71.785,92.675 71.563,91.797 71.429 C 90.818 71.280,91.671 71.707,94.000 72.531 M119.209 85.838 C 119.213 86.037,119.888 86.677,120.709 87.261 C 124.750 90.135,131.809 97.492,136.771 104.001 C 139.146 107.116,139.505 107.115,137.238 104.000 C 133.519 98.891,128.240 93.188,123.376 89.024 C 119.197 85.448,119.199 85.450,119.209 85.838 M28.454 95.828 C 27.776 97.079,27.120 98.485,26.996 98.951 C 26.873 99.418,27.119 99.132,27.543 98.316 C 27.968 97.500,28.715 96.185,29.203 95.395 C 29.692 94.605,30.000 93.867,29.889 93.755 C 29.777 93.644,29.131 94.576,28.454 95.828 M131.913 96.233 C 132.157 96.691,132.666 97.321,133.044 97.633 C 133.669 98.149,133.691 98.125,133.287 97.367 C 133.043 96.909,132.534 96.279,132.156 95.967 C 131.531 95.451,131.509 95.475,131.913 96.233 M25.979 101.055 C 25.758 101.636,25.652 102.185,25.743 102.276 C 25.833 102.367,26.099 101.892,26.333 101.220 C 26.853 99.728,26.539 99.582,25.979 101.055 M25.046 103.243 C 24.950 103.549,24.571 104.790,24.203 106.000 C 23.835 107.210,23.363 108.740,23.155 109.400 C 22.946 110.060,22.699 112.040,22.606 113.800 L 22.437 117.000 22.803 114.000 C 23.173 110.970,23.475 109.720,24.867 105.450 C 25.289 104.158,25.540 103.007,25.426 102.893 C 25.312 102.779,25.141 102.936,25.046 103.243 M139.600 106.000 C 139.835 106.440,140.203 106.800,140.417 106.800 C 140.633 106.800,140.584 106.443,140.307 106.000 C 140.032 105.560,139.665 105.200,139.490 105.200 C 139.315 105.200,139.365 105.560,139.600 106.000 M141.182 110.373 C 148.547 121.326,149.083 122.698,146.914 125.022 C 146.081 125.915,143.960 128.240,142.200 130.190 C 140.440 132.140,138.250 134.560,137.333 135.567 C 136.416 136.575,135.743 137.476,135.837 137.571 C 135.932 137.665,136.772 136.863,137.705 135.788 C 138.637 134.713,141.279 131.756,143.576 129.217 C 145.872 126.677,148.095 124.210,148.515 123.732 C 149.435 122.687,145.653 115.419,141.161 109.600 C 140.736 109.050,140.182 108.195,139.930 107.700 C 139.678 107.205,139.316 106.800,139.125 106.800 C 138.935 106.800,139.860 108.408,141.182 110.373 M140.800 107.677 C 140.800 107.787,141.160 108.293,141.600 108.800 C 142.040 109.307,142.400 109.543,142.400 109.323 C 142.400 109.104,142.040 108.598,141.600 108.200 C 141.160 107.802,140.800 107.566,140.800 107.677 M146.326 116.186 C 146.936 117.531,147.600 118.060,147.600 117.200 C 147.600 116.980,147.420 116.800,147.200 116.800 C 146.980 116.800,146.800 116.552,146.800 116.249 C 146.800 115.946,146.549 115.490,146.243 115.235 C 145.812 114.878,145.831 115.095,146.326 116.186 M22.109 120.000 C 22.109 120.990,22.187 121.395,22.282 120.900 C 22.378 120.405,22.378 119.595,22.282 119.100 C 22.187 118.605,22.109 119.010,22.109 120.000 M356.893 124.000 C 356.893 124.770,356.975 125.085,357.076 124.700 C 357.176 124.315,357.176 123.685,357.076 123.300 C 356.975 122.915,356.893 123.230,356.893 124.000 M22.638 126.200 C 22.753 127.960,23.017 129.571,23.224 129.780 C 23.431 129.989,23.603 130.619,23.606 131.180 C 23.609 131.741,23.787 132.470,24.000 132.800 C 24.502 133.577,24.486 132.993,23.951 131.000 C 23.715 130.120,23.275 127.960,22.975 126.200 L 22.428 123.000 22.638 126.200 M24.646 134.600 C 24.788 135.260,25.080 135.980,25.297 136.200 C 25.555 136.463,25.589 136.257,25.397 135.600 C 24.923 133.985,24.351 133.223,24.646 134.600 M25.812 137.600 C 26.493 140.059,30.883 147.388,33.954 151.191 C 38.896 157.311,47.608 165.140,52.600 167.947 C 53.480 168.441,53.750 168.521,53.200 168.123 C 40.093 158.645,32.970 150.926,27.368 140.130 C 26.360 138.189,25.660 137.050,25.812 137.600 M134.733 138.351 C 134.629 138.624,128.257 145.797,124.400 149.981 C 123.561 150.891,115.745 159.502,114.216 161.200 C 113.523 161.970,111.211 164.536,109.078 166.902 C 106.945 169.268,105.200 171.383,105.200 171.602 C 105.200 171.861,112.451 172.000,125.944 172.000 C 137.353 172.000,147.568 172.113,148.644 172.252 C 150.079 172.437,150.489 172.384,150.183 172.055 C 149.888 171.737,143.358 171.577,127.678 171.503 L 105.589 171.400 108.094 168.617 C 109.472 167.087,111.680 164.650,113.000 163.202 C 114.320 161.755,116.660 159.145,118.200 157.403 C 119.740 155.660,122.260 152.869,123.800 151.201 C 126.272 148.522,127.939 146.673,134.173 139.700 C 135.009 138.765,135.507 138.000,135.280 138.000 C 135.053 138.000,134.807 138.158,134.733 138.351 M212.352 158.000 C 211.857 158.880,211.276 159.600,211.060 159.600 C 210.844 159.600,210.768 159.701,210.891 159.824 C 211.014 159.948,210.480 161.253,209.704 162.724 C 208.928 164.196,207.754 166.470,207.096 167.779 C 206.438 169.087,205.673 170.384,205.397 170.660 C 205.121 170.936,204.558 171.982,204.147 172.984 C 203.736 173.985,203.082 174.907,202.694 175.031 C 202.306 175.156,202.078 175.403,202.188 175.581 C 202.298 175.758,201.931 176.762,201.374 177.811 C 200.073 180.258,200.185 181.449,201.700 181.271 C 202.305 181.201,202.800 181.324,202.800 181.545 C 202.800 181.766,202.305 182.022,201.700 182.113 C 201.095 182.205,205.010 182.283,210.400 182.287 C 215.790 182.291,219.570 182.178,218.800 182.036 L 217.400 181.777 218.700 181.498 C 220.329 181.150,220.470 182.300,217.237 169.522 C 213.572 155.036,213.764 155.488,212.352 158.000 M214.760 162.578 C 215.001 163.690,215.476 165.590,215.815 166.800 C 216.426 168.984,217.039 171.516,218.210 176.700 C 218.545 178.185,218.921 179.725,219.044 180.123 C 219.319 181.010,202.858 181.021,201.973 180.134 C 201.446 179.606,201.532 179.404,204.591 174.000 C 205.650 172.130,207.415 168.890,208.513 166.800 C 211.002 162.064,211.676 160.836,212.411 159.699 L 212.994 158.797 213.658 159.676 C 214.022 160.160,214.518 161.466,214.760 162.578 M173.200 165.952 C 173.200 166.230,173.470 166.727,173.800 167.057 C 174.567 167.824,174.558 167.242,173.787 166.224 C 173.458 165.788,173.200 165.669,173.200 165.952 M172.269 168.068 C 171.943 168.580,171.570 169.810,171.440 170.800 C 171.274 172.060,171.314 172.360,171.573 171.800 C 171.777 171.360,171.956 170.617,171.972 170.149 C 172.069 167.202,175.355 171.138,180.288 180.112 C 180.776 181.000,180.775 181.000,176.488 181.200 L 172.200 181.400 176.734 181.746 C 181.369 182.100,182.657 181.843,181.417 180.814 C 181.078 180.532,180.800 180.069,180.800 179.784 C 180.800 179.500,180.665 179.207,180.500 179.133 C 180.045 178.931,178.400 176.490,178.400 176.016 C 178.400 175.787,178.261 175.600,178.091 175.600 C 177.921 175.600,177.426 174.925,176.991 174.101 C 174.128 168.673,172.889 167.091,172.269 168.068 M54.400 169.076 C 54.400 169.359,55.995 170.326,57.800 171.138 C 58.634 171.513,57.369 170.509,55.900 169.631 C 55.075 169.138,54.400 168.889,54.400 169.076 M58.971 171.809 C 59.395 172.129,59.840 172.294,59.959 172.174 C 60.210 171.923,59.194 171.209,58.600 171.219 C 58.380 171.222,58.547 171.488,58.971 171.809 M61.200 172.916 C 61.750 173.170,62.290 173.494,62.400 173.635 C 62.674 173.987,64.400 174.507,64.400 174.237 C 64.400 173.980,60.989 172.388,60.522 172.427 C 60.345 172.442,60.650 172.662,61.200 172.916 M152.200 172.995 C 154.384 174.021,155.654 175.547,157.131 178.918 L 157.971 180.836 157.086 181.193 C 156.581 181.396,156.458 181.558,156.800 181.569 C 158.567 181.625,158.610 180.936,157.035 177.793 C 155.503 174.733,153.141 172.379,151.640 172.416 C 151.288 172.424,151.540 172.685,152.200 172.995 M170.403 174.389 C 170.156 175.308,170.022 176.266,170.106 176.519 C 170.191 176.772,170.479 176.107,170.748 175.041 C 171.016 173.975,171.150 173.016,171.044 172.911 C 170.939 172.806,170.650 173.471,170.403 174.389 M65.000 174.703 C 65.220 174.895,66.210 175.377,67.200 175.774 C 68.190 176.171,69.360 176.648,69.800 176.834 C 71.636 177.610,75.416 178.799,75.986 178.779 C 76.324 178.768,74.620 178.053,72.200 177.190 C 69.780 176.327,67.440 175.453,67.000 175.247 C 65.666 174.623,64.567 174.323,65.000 174.703 M169.464 178.300 C 168.845 180.582,168.809 181.200,169.292 181.198 C 169.619 181.196,169.818 180.556,169.850 179.398 C 169.902 177.499,169.778 177.144,169.464 178.300 M77.413 179.140 C 77.626 179.335,78.424 179.611,79.188 179.755 C 80.002 179.908,80.415 179.869,80.188 179.660 C 79.974 179.465,79.176 179.189,78.413 179.045 C 77.598 178.892,77.185 178.931,77.413 179.140 M82.000 180.329 C 82.330 180.529,83.500 180.796,84.600 180.923 C 87.002 181.202,85.833 180.626,83.200 180.234 C 82.063 180.065,81.621 180.100,82.000 180.329 M88.600 181.608 C 92.897 182.775,110.354 183.430,123.000 182.898 C 130.341 182.589,129.633 182.560,114.400 182.542 C 101.129 182.526,96.895 182.390,93.286 181.861 C 88.537 181.166,86.584 181.060,88.600 181.608 M138.400 181.649 C 135.210 181.831,132.330 182.054,132.000 182.144 C 131.157 182.375,145.291 181.970,150.600 181.611 L 155.000 181.314 149.600 181.316 C 146.630 181.317,141.590 181.467,138.400 181.649 M130.905 183.487 C 131.514 183.579,132.414 183.577,132.905 183.482 C 133.397 183.387,132.900 183.311,131.800 183.314 C 130.700 183.317,130.297 183.395,130.905 183.487 M280.078 185.499 C 277.591 185.569,273.631 185.569,271.278 185.498 C 268.925 185.428,270.960 185.370,275.800 185.370 C 280.640 185.371,282.565 185.429,280.078 185.499 M207.529 209.612 C 207.354 210.137,209.392 218.725,209.785 219.118 C 210.131 219.464,210.033 218.308,209.589 216.797 C 209.363 216.029,209.083 214.590,208.965 213.600 L 208.752 211.800 210.114 214.000 C 210.864 215.210,212.699 218.180,214.193 220.600 C 216.574 224.459,218.577 227.573,223.042 234.360 C 223.679 235.328,224.380 236.408,224.600 236.760 C 224.820 237.112,225.564 238.210,226.254 239.200 C 226.944 240.190,230.693 245.770,234.585 251.600 L 241.663 262.200 241.452 264.400 C 241.314 265.838,241.362 266.323,241.592 265.800 C 242.478 263.785,241.259 259.612,239.198 257.600 C 238.986 257.393,236.923 254.312,236.206 253.131 C 235.983 252.763,233.460 248.983,230.600 244.731 C 227.740 240.480,225.328 236.821,225.240 236.600 C 225.152 236.380,224.955 236.110,224.803 236.000 C 223.343 234.947,215.964 222.696,216.555 222.306 C 216.839 222.119,216.763 222.010,216.346 222.006 C 215.592 221.999,214.378 220.353,212.592 216.918 C 212.226 216.214,211.673 215.426,211.363 215.169 C 211.053 214.912,210.800 214.537,210.800 214.336 C 210.800 213.596,207.696 209.113,207.529 209.612 M210.285 221.600 C 210.527 223.565,211.191 225.239,211.157 223.800 C 211.147 223.360,210.897 222.280,210.601 221.400 L 210.064 219.800 210.285 221.600 M211.241 225.200 C 211.229 225.530,211.405 226.520,211.632 227.400 C 211.860 228.280,212.214 229.720,212.420 230.600 C 212.626 231.480,212.973 232.830,213.190 233.600 C 213.408 234.370,214.673 239.500,216.001 245.000 C 217.330 250.500,218.799 256.440,219.267 258.200 C 219.735 259.960,220.201 261.987,220.303 262.704 C 220.405 263.421,220.668 264.118,220.887 264.254 C 221.308 264.514,221.041 262.627,220.398 260.800 C 220.204 260.250,219.488 257.460,218.806 254.600 C 218.124 251.740,217.307 248.410,216.990 247.200 C 216.674 245.990,215.866 242.660,215.194 239.800 C 212.855 229.833,211.284 224.033,211.241 225.200 M221.443 266.600 C 221.675 268.589,222.370 270.519,222.380 269.200 C 222.383 268.870,222.120 267.700,221.798 266.600 L 221.211 264.600 221.443 266.600 M240.433 268.820 C 239.917 271.228,239.893 272.034,240.362 271.200 C 240.756 270.502,241.341 266.800,241.058 266.800 C 240.952 266.800,240.671 267.709,240.433 268.820 M222.432 270.488 C 222.219 275.116,229.903 279.737,234.569 277.787 C 236.928 276.802,240.613 272.880,239.875 272.142 C 239.756 272.023,239.387 272.451,239.055 273.093 C 235.382 280.196,225.692 278.942,222.887 271.000 C 222.654 270.340,222.449 270.109,222.432 270.488 M201.532 287.055 C 197.032 291.815,190.438 298.064,186.600 301.205 C 184.400 303.006,182.236 304.776,181.792 305.139 C 173.443 311.967,162.115 317.586,153.000 319.421 C 151.680 319.687,151.061 319.926,151.625 319.952 C 152.676 320.001,158.367 318.659,159.800 318.024 C 160.240 317.829,161.950 317.124,163.600 316.457 C 170.893 313.510,177.523 309.399,184.884 303.258 C 190.898 298.242,194.982 294.510,198.891 290.460 C 204.278 284.879,203.954 285.012,206.137 287.483 C 208.184 289.800,216.585 298.004,218.210 299.272 C 218.863 299.782,215.931 296.735,211.693 292.500 C 207.455 288.265,203.915 284.800,203.826 284.800 C 203.737 284.800,202.705 285.815,201.532 287.055 M221.268 301.647 C 228.625 308.553,238.942 314.920,247.543 317.864 C 250.327 318.817,254.929 319.983,255.800 319.956 C 256.240 319.943,255.250 319.586,253.600 319.163 C 247.935 317.712,239.423 314.197,235.010 311.485 C 233.525 310.572,227.800 306.658,227.600 306.419 C 227.490 306.287,226.590 305.559,225.600 304.800 C 224.610 304.041,223.710 303.320,223.600 303.197 C 223.490 303.074,222.500 302.280,221.400 301.434 L 219.400 299.894 221.268 301.647 M145.014 320.298 C 143.701 320.379,142.396 320.637,142.114 320.872 C 141.526 321.359,141.434 334.245,142.005 336.000 C 142.187 336.559,142.246 334.532,142.138 331.400 C 142.032 328.320,142.093 324.720,142.273 323.400 L 142.602 321.000 146.356 320.711 C 148.421 320.553,150.206 320.328,150.322 320.211 C 150.532 320.001,149.584 320.017,145.014 320.298 M258.600 320.382 C 259.260 320.560,260.733 320.727,261.873 320.753 C 264.503 320.813,264.539 320.914,264.514 328.200 C 264.492 334.535,263.676 341.992,262.390 347.600 C 261.100 353.228,261.065 353.424,261.392 353.120 C 261.557 352.966,261.847 352.246,262.035 351.520 C 262.304 350.485,262.329 350.632,262.152 352.200 C 262.027 353.300,261.785 354.380,261.615 354.600 C 261.444 354.820,261.188 355.648,261.045 356.439 C 260.903 357.230,260.330 358.850,259.773 360.039 C 257.394 365.109,256.417 366.963,256.421 366.400 C 256.423 366.070,256.690 365.451,257.013 365.024 C 257.336 364.596,257.599 363.966,257.597 363.624 C 257.596 363.281,256.551 364.890,255.274 367.200 C 251.496 374.038,249.973 376.092,244.675 381.500 C 243.112 383.095,242.024 384.400,242.256 384.400 C 242.489 384.400,243.857 383.163,245.296 381.651 C 247.920 378.893,249.696 377.416,248.204 379.231 C 245.947 381.977,242.661 384.810,241.982 384.594 C 241.589 384.470,241.150 384.558,241.006 384.790 C 239.449 387.309,227.046 393.398,220.272 394.969 C 180.068 404.293,149.421 382.738,142.970 340.600 L 142.419 337.000 142.624 340.400 C 142.736 342.270,142.992 344.340,143.191 345.000 C 143.390 345.660,143.763 347.280,144.020 348.600 C 146.794 362.864,156.899 379.499,167.000 386.428 C 168.100 387.183,169.090 387.908,169.200 388.040 C 169.760 388.713,177.414 392.684,179.190 393.224 C 179.834 393.420,179.946 393.544,179.500 393.566 C 179.115 393.585,178.800 393.780,178.800 394.000 C 178.800 394.541,179.896 394.511,180.078 393.966 C 180.174 393.678,181.026 393.798,182.611 394.324 C 183.925 394.760,185.585 395.239,186.300 395.390 C 187.656 395.675,188.101 396.400,186.920 396.400 C 184.921 396.400,187.570 397.160,191.600 397.744 C 197.339 398.574,199.043 398.587,199.345 397.800 C 199.617 397.091,207.372 396.908,207.800 397.600 C 207.959 397.857,206.596 398.000,204.000 398.000 C 201.080 398.000,200.031 398.127,200.234 398.455 C 200.516 398.911,202.483 398.870,216.400 398.122 C 222.267 397.806,221.317 397.108,215.000 397.093 C 212.295 397.087,212.295 396.495,215.000 396.425 C 215.660 396.408,217.716 396.031,219.570 395.587 C 222.213 394.953,223.006 394.887,223.249 395.279 C 223.765 396.114,232.635 392.642,236.466 390.106 C 241.241 386.944,242.715 385.743,246.470 381.956 C 251.781 376.599,260.000 363.862,260.000 360.988 C 260.000 360.715,260.269 359.976,260.598 359.346 C 260.926 358.716,261.196 357.921,261.198 357.580 C 261.199 357.239,261.370 356.789,261.577 356.580 C 261.784 356.371,262.133 355.480,262.351 354.600 C 262.569 353.720,263.023 351.920,263.360 350.600 C 264.098 347.704,264.106 347.600,263.600 347.600 C 263.380 347.600,263.200 348.230,263.200 349.000 C 263.200 349.770,263.020 350.400,262.800 350.400 C 262.280 350.400,262.272 350.494,263.187 345.819 C 264.981 336.657,265.681 326.988,264.861 322.682 C 264.409 320.305,264.812 320.543,260.800 320.281 C 258.771 320.148,257.884 320.189,258.600 320.382 M265.754 328.800 C 265.754 331.550,265.818 332.675,265.896 331.300 C 265.974 329.925,265.974 327.675,265.896 326.300 C 265.818 324.925,265.754 326.050,265.754 328.800 M265.328 338.000 C 265.328 339.430,265.401 340.015,265.489 339.300 C 265.578 338.585,265.578 337.415,265.489 336.700 C 265.401 335.985,265.328 336.570,265.328 338.000 M264.400 342.805 C 264.400 343.688,264.192 344.745,263.937 345.152 C 263.666 345.586,263.606 346.207,263.791 346.647 C 264.027 347.208,264.241 346.737,264.629 344.800 C 265.280 341.556,265.297 341.200,264.800 341.200 C 264.580 341.200,264.400 341.922,264.400 342.805 M260.440 355.040 C 260.210 355.873,260.089 356.622,260.171 356.704 C 260.253 356.786,260.536 356.199,260.800 355.400 C 261.064 354.601,261.185 353.852,261.069 353.736 C 260.953 353.620,260.670 354.207,260.440 355.040 M259.352 357.900 C 259.230 358.285,258.784 359.483,258.361 360.563 C 257.938 361.642,257.677 362.611,257.781 362.714 C 257.885 362.818,258.179 362.385,258.435 361.752 C 258.690 361.118,259.046 360.240,259.225 359.800 C 259.788 358.415,260.063 357.200,259.814 357.200 C 259.683 357.200,259.475 357.515,259.352 357.900 M253.967 371.479 C 253.458 372.316,252.930 373.090,252.792 373.200 C 252.654 373.310,252.425 373.715,252.283 374.100 C 252.141 374.485,251.847 374.800,251.628 374.800 C 251.410 374.800,251.976 373.632,252.887 372.204 C 254.622 369.482,255.566 368.848,253.967 371.479 M251.200 375.538 C 251.200 376.038,249.266 378.199,249.029 377.962 C 248.917 377.851,249.315 377.194,249.913 376.503 C 251.116 375.113,251.200 375.050,251.200 375.538 M238.569 387.904 C 237.785 388.609,236.377 389.423,232.400 391.468 C 231.190 392.091,230.140 392.735,230.067 392.900 C 229.993 393.065,229.599 393.200,229.190 393.200 C 228.782 393.200,228.341 393.372,228.211 393.583 C 228.081 393.793,227.710 393.864,227.387 393.740 C 227.064 393.616,226.800 393.714,226.800 393.957 C 226.800 394.201,226.476 394.400,226.080 394.400 C 225.684 394.400,225.187 394.573,224.977 394.783 C 224.761 394.999,224.356 395.020,224.050 394.831 C 223.673 394.598,224.163 394.281,225.653 393.794 C 228.761 392.778,235.077 389.697,237.180 388.171 C 239.030 386.828,239.963 386.649,238.569 387.904 M220.800 396.000 C 220.800 396.220,221.160 396.400,221.600 396.400 C 222.040 396.400,222.400 396.220,222.400 396.000 C 222.400 395.780,222.040 395.600,221.600 395.600 C 221.160 395.600,220.800 395.780,220.800 396.000 M192.948 396.620 C 194.120 396.766,194.751 397.009,194.532 397.228 C 194.313 397.447,193.617 397.434,192.787 397.196 C 192.027 396.978,190.830 396.800,190.126 396.800 C 189.423 396.800,188.743 396.631,188.615 396.424 C 188.480 396.207,188.936 396.117,189.691 396.211 C 190.411 396.302,191.877 396.485,192.948 396.620 M218.305 396.683 C 218.802 396.779,219.522 396.775,219.905 396.675 C 220.287 396.575,219.880 396.496,219.000 396.501 C 218.120 396.505,217.807 396.587,218.305 396.683 M230.307 396.690 C 231.026 396.779,232.106 396.777,232.707 396.686 C 233.308 396.595,232.720 396.522,231.400 396.524 C 230.080 396.526,229.588 396.601,230.307 396.690 M223.400 397.200 C 223.095 397.694,227.051 397.694,228.200 397.200 C 228.758 396.960,228.190 396.848,226.324 396.828 C 224.852 396.813,223.536 396.980,223.400 397.200 " stroke="none" fill="#a5baaa" fill-rule="evenodd"></path></g></svg>