<svg id="svg" version="1.1" xmlns="http://www.w3.org/2000/svg" xmlns:xlink="http://www.w3.org/1999/xlink" width="400" height="400" viewBox="0, 0, 400,400"><g id="svgg"><path id="path0" d="M218.400 208.594 C 218.400 208.921,218.569 209.956,218.775 210.894 C 218.982 211.832,219.454 214.040,219.825 215.800 C 220.196 217.560,220.908 220.440,221.407 222.200 C 221.907 223.960,222.412 225.850,222.530 226.400 C 222.930 228.262,223.593 230.993,223.987 232.400 C 224.202 233.170,225.114 236.860,226.013 240.600 C 226.912 244.340,228.014 248.840,228.462 250.600 C 228.911 252.360,229.437 254.577,229.632 255.527 C 229.826 256.476,230.090 257.422,230.217 257.628 C 230.344 257.834,230.594 258.857,230.772 259.901 C 231.793 265.906,233.655 270.736,235.696 272.673 C 241.387 278.073,248.796 275.127,251.023 266.578 C 252.765 259.887,252.789 259.965,245.725 249.416 C 243.126 245.534,240.190 241.125,239.200 239.617 C 238.210 238.109,235.501 234.024,233.180 230.538 C 228.812 223.977,220.098 210.233,219.405 208.810 C 218.943 207.861,218.400 207.744,218.400 208.594 M207.000 289.533 C 191.912 304.424,180.256 312.599,167.400 317.305 C 163.289 318.811,155.513 320.372,152.000 320.399 C 148.828 320.423,148.391 321.398,148.417 328.397 C 148.445 335.753,150.544 350.079,151.989 352.779 C 152.215 353.202,152.400 353.870,152.400 354.265 C 152.400 354.880,153.716 358.798,154.796 361.400 C 163.522 382.412,180.879 396.666,200.600 399.013 C 201.920 399.170,203.231 399.483,203.512 399.709 C 204.438 400.449,226.045 399.826,226.618 399.043 C 226.944 398.597,227.718 398.400,229.144 398.400 C 230.705 398.400,231.200 398.256,231.200 397.800 C 231.200 397.385,231.617 397.200,232.551 397.200 C 233.294 397.200,234.126 396.930,234.400 396.600 C 234.674 396.270,235.124 396.000,235.399 396.000 C 236.464 396.000,245.843 391.496,248.121 389.891 C 254.160 385.636,264.400 374.727,264.400 372.550 C 264.400 372.457,265.102 371.260,265.961 369.890 C 267.692 367.130,268.763 364.899,269.945 361.600 C 270.378 360.390,271.115 358.410,271.583 357.200 C 272.051 355.990,272.594 354.280,272.789 353.400 C 272.984 352.520,273.434 350.540,273.790 349.000 C 275.195 342.910,275.669 338.685,275.877 330.376 C 276.122 320.652,276.056 320.400,273.296 320.400 C 269.922 320.400,258.142 317.752,257.020 316.742 C 256.811 316.554,256.386 316.400,256.075 316.400 C 254.097 316.400,242.181 309.392,235.834 304.496 C 233.305 302.545,231.782 301.254,225.829 296.015 C 224.713 295.033,221.509 291.928,218.709 289.115 C 215.909 286.302,213.389 284.001,213.109 284.003 C 212.829 284.005,210.080 286.494,207.000 289.533 " stroke="none" fill="#f33534" fill-rule="evenodd"></path><path id="path1" d="M66.400 58.004 C 65.630 58.181,64.100 58.533,63.000 58.787 C 58.481 59.828,57.353 60.057,56.391 60.127 C 55.835 60.167,54.947 60.605,54.415 61.100 C 53.884 61.595,53.303 62.000,53.125 62.000 C 52.946 62.000,52.800 62.270,52.800 62.600 C 52.800 62.930,52.530 63.200,52.200 63.200 C 51.870 63.200,51.600 63.427,51.600 63.705 C 51.600 63.983,51.150 64.548,50.600 64.961 C 50.050 65.374,49.600 65.914,49.600 66.160 C 49.600 66.407,49.150 67.093,48.600 67.687 C 48.050 68.280,47.600 68.953,47.600 69.183 C 47.600 69.412,47.407 69.600,47.171 69.600 C 46.618 69.600,45.600 70.618,45.600 71.171 C 45.600 71.407,45.330 71.600,45.000 71.600 C 44.670 71.600,44.400 71.851,44.400 72.157 C 44.400 72.464,44.130 72.818,43.800 72.945 C 43.470 73.071,43.200 73.463,43.200 73.816 C 43.200 74.545,42.271 75.600,41.629 75.600 C 41.393 75.600,41.200 75.870,41.200 76.200 C 41.200 76.530,41.020 76.800,40.800 76.800 C 40.580 76.800,40.400 77.250,40.400 77.800 C 40.400 78.422,40.173 78.800,39.800 78.800 C 39.470 78.800,39.200 79.070,39.200 79.400 C 39.200 79.730,39.007 80.000,38.771 80.000 C 38.008 80.000,37.200 81.117,37.200 82.171 C 37.200 82.737,36.996 83.200,36.747 83.200 C 36.233 83.200,34.800 84.734,34.800 85.285 C 34.800 85.484,34.620 85.536,34.400 85.400 C 34.173 85.260,34.000 85.596,34.000 86.176 C 34.000 86.820,33.777 87.200,33.400 87.200 C 33.070 87.200,32.800 87.470,32.800 87.800 C 32.800 88.130,32.620 88.400,32.400 88.400 C 32.180 88.400,32.000 88.850,32.000 89.400 C 32.000 90.022,31.773 90.400,31.400 90.400 C 31.070 90.400,30.800 90.670,30.800 91.000 C 30.800 91.330,30.623 91.600,30.408 91.600 C 30.192 91.600,29.902 92.050,29.764 92.600 C 29.626 93.150,29.353 93.600,29.157 93.600 C 28.960 93.600,28.800 94.050,28.800 94.600 C 28.800 95.222,28.573 95.600,28.200 95.600 C 27.870 95.600,27.600 95.870,27.600 96.200 C 27.600 96.530,27.420 96.800,27.200 96.800 C 26.980 96.800,26.800 97.250,26.800 97.800 C 26.800 98.422,26.573 98.800,26.200 98.800 C 25.827 98.800,25.600 99.178,25.600 99.800 C 25.600 100.422,25.373 100.800,25.000 100.800 C 24.627 100.800,24.400 101.178,24.400 101.800 C 24.400 102.350,24.241 102.800,24.046 102.800 C 23.461 102.800,23.952 117.069,24.645 120.200 C 28.755 138.773,48.818 160.415,68.792 167.823 C 69.567 168.110,71.190 168.726,72.400 169.192 C 75.989 170.573,80.501 172.094,82.000 172.428 C 96.250 175.597,97.603 175.698,122.407 175.441 C 134.393 175.317,148.700 174.987,154.200 174.708 L 164.200 174.200 164.128 173.125 C 164.032 171.687,161.590 167.932,160.027 166.819 C 158.162 165.491,153.867 165.217,130.700 164.944 C 114.543 164.754,110.400 164.600,110.400 164.190 C 110.400 163.596,112.030 161.588,116.400 156.800 C 118.106 154.930,120.288 152.500,121.249 151.400 C 122.210 150.300,124.174 148.140,125.614 146.600 C 127.055 145.060,129.675 142.180,131.437 140.200 C 134.385 136.887,141.921 128.525,149.800 119.822 C 151.560 117.878,153.433 115.684,153.962 114.947 L 154.924 113.605 154.187 111.903 C 153.782 110.966,153.214 109.916,152.925 109.569 C 152.636 109.221,152.400 108.788,152.400 108.606 C 152.400 108.424,151.950 107.686,151.400 106.964 C 150.850 106.243,150.400 105.572,150.400 105.473 C 150.400 105.373,148.923 103.066,147.119 100.346 C 135.337 82.588,119.726 69.430,102.800 62.989 C 101.810 62.612,100.640 62.152,100.200 61.966 C 96.743 60.504,92.374 59.407,84.376 57.993 C 81.759 57.531,68.427 57.539,66.400 58.004 M179.787 163.000 C 179.684 163.330,179.488 163.915,179.351 164.300 C 178.606 166.393,177.887 170.070,177.847 172.000 L 177.800 174.200 182.900 174.312 C 189.106 174.448,188.996 174.715,185.230 168.656 C 181.560 162.753,180.280 161.423,179.787 163.000 " stroke="none" fill="#3434f3" fill-rule="evenodd"></path><path id="path2" d="M309.199 57.228 C 307.548 57.402,305.691 57.737,305.073 57.972 C 304.454 58.208,303.452 58.400,302.845 58.400 C 302.239 58.400,300.945 58.647,299.971 58.950 C 298.997 59.252,296.580 59.988,294.600 60.586 C 280.607 64.809,259.093 80.964,253.780 91.239 C 252.845 93.046,254.926 97.005,258.384 100.000 C 258.511 100.110,260.858 102.720,263.600 105.800 C 266.342 108.880,268.681 111.490,268.798 111.600 C 268.916 111.710,270.611 113.600,272.566 115.800 C 274.520 118.000,277.129 120.880,278.364 122.200 C 279.598 123.520,281.957 126.129,283.604 127.998 C 285.252 129.867,286.780 131.590,287.000 131.828 C 287.220 132.065,288.750 133.767,290.400 135.610 C 293.359 138.915,296.571 142.479,299.766 146.002 C 300.665 146.993,302.102 148.613,302.959 149.602 C 303.817 150.591,305.438 152.390,306.563 153.600 C 316.298 164.073,316.556 164.485,313.673 164.963 C 312.863 165.098,300.320 165.370,285.800 165.569 C 254.148 166.002,255.689 165.744,253.030 171.058 C 251.226 174.663,251.553 175.238,255.800 175.922 C 269.470 178.123,299.941 178.145,311.200 175.961 C 315.188 175.188,318.985 174.314,319.919 173.954 C 320.424 173.759,321.144 173.599,321.519 173.598 C 321.893 173.596,322.716 173.326,323.346 172.998 C 323.976 172.669,324.638 172.400,324.818 172.400 C 325.761 172.400,336.830 166.995,339.325 165.316 C 340.401 164.592,341.422 164.000,341.595 164.000 C 342.183 164.000,348.317 159.407,350.462 157.361 C 359.890 148.368,367.454 136.688,369.997 127.200 C 372.586 117.542,371.688 105.953,367.489 94.800 C 365.865 90.489,361.947 82.736,360.515 81.003 C 359.686 80.000,358.906 78.835,358.535 78.049 C 357.691 76.258,348.230 67.665,344.200 65.028 C 341.350 63.164,340.193 62.491,337.441 61.103 C 331.223 57.965,318.619 56.236,309.199 57.228 M222.160 152.306 C 221.918 152.468,221.123 153.680,220.394 155.000 C 219.665 156.320,218.748 157.940,218.356 158.600 C 217.965 159.260,217.186 160.700,216.627 161.800 C 216.067 162.900,215.052 164.780,214.372 165.978 C 211.928 170.283,210.738 172.777,210.958 173.132 C 211.818 174.524,228.400 174.321,228.400 172.920 C 228.400 172.332,227.242 167.196,226.208 163.200 C 225.895 161.990,225.339 159.740,224.973 158.200 C 224.185 154.893,223.191 151.998,222.846 152.006 C 222.711 152.009,222.402 152.144,222.160 152.306 " stroke="none" fill="#35fa35" fill-rule="evenodd"></path><path id="path3" d="M175.282 0.275 C 172.138 0.392,171.111 0.567,170.939 1.014 C 170.768 1.460,169.961 1.600,167.557 1.600 C 165.017 1.600,164.400 1.717,164.400 2.200 C 164.400 2.672,163.844 2.800,161.800 2.800 C 160.333 2.800,159.200 2.974,159.200 3.200 C 159.200 3.426,158.067 3.600,156.600 3.600 C 154.556 3.600,154.000 3.728,154.000 4.200 C 154.000 4.653,153.511 4.800,152.000 4.800 C 150.900 4.800,150.000 4.980,150.000 5.200 C 150.000 5.420,149.094 5.600,147.987 5.600 C 146.568 5.600,145.907 5.777,145.745 6.200 C 145.602 6.572,144.993 6.800,144.145 6.800 C 143.296 6.800,142.687 7.028,142.545 7.400 C 142.383 7.820,141.728 8.000,140.357 8.000 C 139.281 8.000,138.400 8.180,138.400 8.400 C 138.400 8.620,137.764 8.800,136.987 8.800 C 136.101 8.800,135.489 9.023,135.345 9.400 C 135.203 9.770,134.595 10.000,133.757 10.000 C 133.011 10.000,132.400 10.180,132.400 10.400 C 132.400 10.620,131.944 10.800,131.387 10.800 C 130.831 10.800,130.271 11.070,130.145 11.400 C 129.995 11.791,129.372 12.000,128.357 12.000 C 127.240 12.000,126.800 12.169,126.800 12.600 C 126.800 12.973,126.422 13.200,125.800 13.200 C 125.250 13.200,124.800 13.380,124.800 13.600 C 124.800 13.820,124.164 14.000,123.387 14.000 C 122.501 14.000,121.889 14.223,121.745 14.600 C 121.618 14.930,121.084 15.200,120.557 15.200 C 120.031 15.200,119.600 15.380,119.600 15.600 C 119.600 15.820,119.234 16.000,118.787 16.000 C 118.341 16.000,117.871 16.270,117.745 16.600 C 117.595 16.991,116.972 17.200,115.957 17.200 C 114.840 17.200,114.400 17.369,114.400 17.800 C 114.400 18.173,114.022 18.400,113.400 18.400 C 112.850 18.400,112.400 18.580,112.400 18.800 C 112.400 19.020,111.950 19.200,111.400 19.200 C 110.778 19.200,110.400 19.427,110.400 19.800 C 110.400 20.200,110.000 20.400,109.200 20.400 C 108.400 20.400,108.000 20.600,108.000 21.000 C 108.000 21.373,107.622 21.600,107.000 21.600 C 106.450 21.600,106.000 21.780,106.000 22.000 C 106.000 22.220,105.550 22.400,105.000 22.400 C 104.378 22.400,104.000 22.627,104.000 23.000 C 104.000 23.330,103.730 23.600,103.400 23.600 C 103.070 23.600,102.800 23.780,102.800 24.000 C 102.800 24.220,102.350 24.400,101.800 24.400 C 101.178 24.400,100.800 24.627,100.800 25.000 C 100.800 25.373,100.422 25.600,99.800 25.600 C 99.178 25.600,98.800 25.827,98.800 26.200 C 98.800 26.573,98.422 26.800,97.800 26.800 C 97.250 26.800,96.800 26.980,96.800 27.200 C 96.800 27.420,96.530 27.600,96.200 27.600 C 95.870 27.600,95.600 27.870,95.600 28.200 C 95.600 28.573,95.222 28.800,94.600 28.800 C 94.050 28.800,93.600 28.960,93.600 29.157 C 93.600 29.353,93.150 29.626,92.600 29.764 C 92.050 29.902,91.600 30.192,91.600 30.408 C 91.600 30.623,91.330 30.800,91.000 30.800 C 90.670 30.800,90.400 31.070,90.400 31.400 C 90.400 31.773,90.022 32.000,89.400 32.000 C 88.850 32.000,88.400 32.180,88.400 32.400 C 88.400 32.620,88.130 32.800,87.800 32.800 C 87.470 32.800,87.200 33.070,87.200 33.400 C 87.200 33.730,86.846 34.000,86.414 34.000 C 85.591 34.000,83.200 36.073,83.200 36.787 C 83.200 37.014,82.737 37.200,82.171 37.200 C 81.117 37.200,80.000 38.008,80.000 38.771 C 80.000 39.007,79.730 39.200,79.400 39.200 C 79.070 39.200,78.800 39.470,78.800 39.800 C 78.800 40.173,78.422 40.400,77.800 40.400 C 77.250 40.400,76.800 40.580,76.800 40.800 C 76.800 41.020,76.530 41.200,76.200 41.200 C 75.870 41.200,75.600 41.393,75.600 41.629 C 75.600 42.271,74.545 43.200,73.816 43.200 C 73.463 43.200,73.071 43.470,72.945 43.800 C 72.818 44.130,72.464 44.400,72.157 44.400 C 71.851 44.400,71.600 44.670,71.600 45.000 C 71.600 45.330,71.407 45.600,71.171 45.600 C 70.618 45.600,69.600 46.618,69.600 47.171 C 69.600 47.407,69.422 47.600,69.205 47.600 C 68.667 47.600,67.204 48.882,67.393 49.188 C 67.476 49.323,67.165 49.462,66.702 49.497 C 66.238 49.532,65.465 50.020,64.983 50.580 C 64.501 51.141,63.892 51.600,63.630 51.600 C 63.367 51.600,63.272 51.792,63.417 52.027 C 63.562 52.262,63.325 52.547,62.890 52.661 C 62.455 52.774,61.866 53.302,61.582 53.834 C 61.298 54.365,60.825 54.800,60.532 54.800 C 60.240 54.800,60.000 54.978,60.000 55.195 C 60.000 55.810,58.696 57.183,58.329 56.956 C 58.148 56.844,58.000 57.033,58.000 57.376 C 58.000 57.719,57.730 58.000,57.400 58.000 C 57.070 58.000,56.800 58.255,56.800 58.567 C 56.800 58.878,56.575 59.231,56.300 59.351 C 55.336 59.770,59.846 58.866,63.400 57.928 C 66.674 57.064,84.517 57.203,88.600 58.125 C 97.733 60.187,102.509 61.833,109.600 65.364 C 120.467 70.776,123.411 72.909,133.938 83.000 C 135.774 84.760,137.541 86.173,137.866 86.140 C 138.190 86.107,138.369 86.304,138.264 86.578 C 138.159 86.852,139.001 88.245,140.136 89.672 C 141.271 91.100,143.010 93.412,144.000 94.809 C 144.990 96.207,146.179 97.749,146.642 98.235 C 147.105 98.722,147.581 99.374,147.700 99.683 C 148.217 101.030,152.107 106.600,152.532 106.602 C 152.789 106.603,153.004 106.963,153.009 107.402 C 153.013 107.841,153.485 109.100,154.057 110.200 C 155.683 113.329,155.765 113.864,154.801 115.090 C 153.966 116.151,150.217 120.346,145.400 125.610 C 144.080 127.052,140.030 131.553,136.400 135.612 C 132.770 139.671,128.720 144.169,127.400 145.608 C 126.080 147.048,123.560 149.837,121.800 151.806 C 120.040 153.776,117.520 156.568,116.200 158.012 C 111.598 163.046,111.201 163.554,111.655 163.834 C 111.896 163.983,118.418 164.170,126.147 164.250 C 147.155 164.466,155.666 164.713,157.000 165.145 C 157.660 165.359,158.654 165.632,159.208 165.752 C 161.353 166.215,165.639 172.390,164.990 174.082 C 164.746 174.717,160.869 175.001,138.600 176.014 C 122.749 176.735,95.533 176.348,93.965 175.378 C 93.821 175.289,92.015 174.946,89.951 174.616 C 81.657 173.290,70.755 169.868,65.200 166.847 C 64.870 166.668,63.340 165.840,61.800 165.007 C 58.316 163.123,56.260 161.915,56.000 161.600 C 55.890 161.467,55.080 160.929,54.200 160.406 C 47.367 156.339,37.561 146.787,32.469 139.238 C 29.547 134.906,26.784 129.315,25.235 124.600 C 23.806 120.249,23.633 119.067,23.395 112.000 C 23.266 108.150,22.993 104.833,22.789 104.629 C 22.562 104.402,22.483 104.595,22.586 105.129 C 22.696 105.699,22.554 106.000,22.177 106.000 C 21.828 106.000,21.600 106.395,21.600 107.000 C 21.600 107.622,21.373 108.000,21.000 108.000 C 20.600 108.000,20.400 108.400,20.400 109.200 C 20.400 110.000,20.200 110.400,19.800 110.400 C 19.427 110.400,19.200 110.778,19.200 111.400 C 19.200 111.950,19.020 112.400,18.800 112.400 C 18.580 112.400,18.400 112.850,18.400 113.400 C 18.400 114.022,18.173 114.400,17.800 114.400 C 17.369 114.400,17.200 114.840,17.200 115.957 C 17.200 116.972,16.991 117.595,16.600 117.745 C 16.270 117.871,16.000 118.341,16.000 118.787 C 16.000 119.234,15.820 119.600,15.600 119.600 C 15.380 119.600,15.200 120.031,15.200 120.557 C 15.200 121.084,14.930 121.618,14.600 121.745 C 14.223 121.889,14.000 122.501,14.000 123.387 C 14.000 124.164,13.820 124.800,13.600 124.800 C 13.380 124.800,13.200 125.250,13.200 125.800 C 13.200 126.422,12.973 126.800,12.600 126.800 C 12.169 126.800,12.000 127.240,12.000 128.357 C 12.000 129.372,11.791 129.995,11.400 130.145 C 11.070 130.271,10.800 130.831,10.800 131.387 C 10.800 131.944,10.620 132.400,10.400 132.400 C 10.180 132.400,10.000 133.011,10.000 133.757 C 10.000 134.595,9.770 135.203,9.400 135.345 C 9.023 135.489,8.800 136.101,8.800 136.987 C 8.800 137.764,8.620 138.400,8.400 138.400 C 8.180 138.400,8.000 139.281,8.000 140.357 C 8.000 141.728,7.820 142.383,7.400 142.545 C 7.028 142.687,6.800 143.296,6.800 144.145 C 6.800 144.993,6.572 145.602,6.200 145.745 C 5.777 145.907,5.600 146.568,5.600 147.987 C 5.600 149.094,5.420 150.000,5.200 150.000 C 4.980 150.000,4.800 150.900,4.800 152.000 C 4.800 153.511,4.653 154.000,4.200 154.000 C 3.728 154.000,3.600 154.556,3.600 156.600 C 3.600 158.067,3.426 159.200,3.200 159.200 C 2.974 159.200,2.800 160.333,2.800 161.800 C 2.800 163.844,2.672 164.400,2.200 164.400 C 1.719 164.400,1.600 165.006,1.600 167.456 C 1.600 169.905,1.461 170.614,0.900 171.024 C -0.184 171.816,-0.184 228.184,0.900 228.976 C 1.461 229.386,1.600 230.095,1.600 232.544 C 1.600 234.994,1.719 235.600,2.200 235.600 C 2.672 235.600,2.800 236.156,2.800 238.200 C 2.800 239.667,2.974 240.800,3.200 240.800 C 3.426 240.800,3.600 241.933,3.600 243.400 C 3.600 245.444,3.728 246.000,4.200 246.000 C 4.653 246.000,4.800 246.489,4.800 248.000 C 4.800 249.100,4.980 250.000,5.200 250.000 C 5.420 250.000,5.600 250.906,5.600 252.013 C 5.600 253.432,5.777 254.093,6.200 254.255 C 6.572 254.398,6.800 255.007,6.800 255.855 C 6.800 256.704,7.028 257.313,7.400 257.455 C 7.820 257.617,8.000 258.272,8.000 259.643 C 8.000 260.719,8.180 261.600,8.400 261.600 C 8.620 261.600,8.800 262.236,8.800 263.013 C 8.800 263.899,9.023 264.511,9.400 264.655 C 9.770 264.797,10.000 265.405,10.000 266.243 C 10.000 267.121,10.192 267.600,10.545 267.600 C 10.909 267.600,11.026 267.929,10.899 268.595 C 10.770 269.268,10.917 269.670,11.354 269.838 C 11.796 270.007,12.000 270.579,12.000 271.643 C 12.000 272.760,12.169 273.200,12.600 273.200 C 12.973 273.200,13.200 273.578,13.200 274.200 C 13.200 274.750,13.380 275.200,13.600 275.200 C 13.820 275.200,14.000 275.836,14.000 276.613 C 14.000 277.499,14.223 278.111,14.600 278.255 C 14.930 278.382,15.200 278.916,15.200 279.443 C 15.200 279.969,15.380 280.400,15.600 280.400 C 15.820 280.400,16.000 280.766,16.000 281.213 C 16.000 281.659,16.270 282.129,16.600 282.255 C 16.991 282.405,17.200 283.028,17.200 284.043 C 17.200 285.160,17.369 285.600,17.800 285.600 C 18.173 285.600,18.400 285.978,18.400 286.600 C 18.400 287.150,18.580 287.600,18.800 287.600 C 19.020 287.600,19.200 288.050,19.200 288.600 C 19.200 289.222,19.427 289.600,19.800 289.600 C 20.200 289.600,20.400 290.000,20.400 290.800 C 20.400 291.600,20.600 292.000,21.000 292.000 C 21.373 292.000,21.600 292.378,21.600 293.000 C 21.600 293.550,21.780 294.000,22.000 294.000 C 22.220 294.000,22.400 294.450,22.400 295.000 C 22.400 295.622,22.627 296.000,23.000 296.000 C 23.330 296.000,23.600 296.270,23.600 296.600 C 23.600 296.930,23.780 297.200,24.000 297.200 C 24.220 297.200,24.400 297.650,24.400 298.200 C 24.400 298.822,24.627 299.200,25.000 299.200 C 25.373 299.200,25.600 299.578,25.600 300.200 C 25.600 300.822,25.827 301.200,26.200 301.200 C 26.573 301.200,26.800 301.578,26.800 302.200 C 26.800 302.750,26.980 303.200,27.200 303.200 C 27.420 303.200,27.600 303.470,27.600 303.800 C 27.600 304.130,27.870 304.400,28.200 304.400 C 28.573 304.400,28.800 304.778,28.800 305.400 C 28.800 305.950,28.960 306.400,29.157 306.400 C 29.353 306.400,29.626 306.850,29.764 307.400 C 29.902 307.950,30.192 308.400,30.408 308.400 C 30.623 308.400,30.800 308.670,30.800 309.000 C 30.800 309.330,31.070 309.600,31.400 309.600 C 31.773 309.600,32.000 309.978,32.000 310.600 C 32.000 311.150,32.180 311.600,32.400 311.600 C 32.620 311.600,32.800 311.870,32.800 312.200 C 32.800 312.530,33.070 312.800,33.400 312.800 C 33.730 312.800,34.000 313.154,34.000 313.586 C 34.000 314.409,36.073 316.800,36.787 316.800 C 37.014 316.800,37.200 317.263,37.200 317.829 C 37.200 318.883,38.008 320.000,38.771 320.000 C 39.007 320.000,39.200 320.270,39.200 320.600 C 39.200 320.930,39.470 321.200,39.800 321.200 C 40.173 321.200,40.400 321.578,40.400 322.200 C 40.400 322.750,40.580 323.200,40.800 323.200 C 41.020 323.200,41.200 323.470,41.200 323.800 C 41.200 324.130,41.393 324.400,41.629 324.400 C 42.271 324.400,43.200 325.455,43.200 326.184 C 43.200 326.537,43.470 326.929,43.800 327.055 C 44.130 327.182,44.400 327.536,44.400 327.843 C 44.400 328.149,44.670 328.400,45.000 328.400 C 45.330 328.400,45.600 328.593,45.600 328.829 C 45.600 329.382,46.618 330.400,47.171 330.400 C 47.407 330.400,47.600 330.604,47.600 330.854 C 47.600 331.104,48.050 331.725,48.600 332.235 C 49.150 332.745,49.600 333.415,49.600 333.725 C 49.600 334.035,50.050 334.626,50.600 335.039 C 51.150 335.452,51.600 336.028,51.600 336.319 C 51.600 336.609,51.792 336.728,52.027 336.583 C 52.262 336.438,52.547 336.675,52.661 337.110 C 52.774 337.545,53.302 338.134,53.834 338.418 C 54.365 338.702,54.800 339.175,54.800 339.468 C 54.800 339.760,54.978 340.000,55.195 340.000 C 55.810 340.000,57.183 341.304,56.956 341.671 C 56.844 341.852,57.033 342.000,57.376 342.000 C 57.719 342.000,58.000 342.281,58.000 342.624 C 58.000 342.967,58.148 343.156,58.329 343.044 C 58.696 342.817,60.000 344.190,60.000 344.805 C 60.000 345.022,60.240 345.200,60.532 345.200 C 60.825 345.200,61.298 345.635,61.582 346.166 C 61.866 346.698,62.455 347.226,62.890 347.339 C 63.325 347.453,63.562 347.738,63.417 347.973 C 63.272 348.208,63.391 348.400,63.681 348.400 C 63.972 348.400,64.548 348.850,64.961 349.400 C 65.374 349.950,65.965 350.400,66.275 350.400 C 66.585 350.400,67.255 350.850,67.765 351.400 C 68.275 351.950,68.896 352.400,69.146 352.400 C 69.396 352.400,69.600 352.593,69.600 352.829 C 69.600 353.382,70.618 354.400,71.171 354.400 C 71.407 354.400,71.600 354.670,71.600 355.000 C 71.600 355.330,71.851 355.600,72.157 355.600 C 72.464 355.600,72.818 355.870,72.945 356.200 C 73.071 356.530,73.463 356.800,73.816 356.800 C 74.545 356.800,75.600 357.729,75.600 358.371 C 75.600 358.607,75.870 358.800,76.200 358.800 C 76.530 358.800,76.800 358.980,76.800 359.200 C 76.800 359.420,77.250 359.600,77.800 359.600 C 78.422 359.600,78.800 359.827,78.800 360.200 C 78.800 360.530,79.070 360.800,79.400 360.800 C 79.730 360.800,80.000 360.993,80.000 361.229 C 80.000 361.992,81.117 362.800,82.171 362.800 C 82.737 362.800,83.200 362.986,83.200 363.213 C 83.200 363.927,85.591 366.000,86.414 366.000 C 86.846 366.000,87.200 366.270,87.200 366.600 C 87.200 366.930,87.470 367.200,87.800 367.200 C 88.130 367.200,88.400 367.380,88.400 367.600 C 88.400 367.820,88.850 368.000,89.400 368.000 C 90.022 368.000,90.400 368.227,90.400 368.600 C 90.400 368.930,90.670 369.200,91.000 369.200 C 91.330 369.200,91.600 369.377,91.600 369.592 C 91.600 369.808,92.050 370.098,92.600 370.236 C 93.150 370.374,93.600 370.647,93.600 370.843 C 93.600 371.040,94.050 371.200,94.600 371.200 C 95.222 371.200,95.600 371.427,95.600 371.800 C 95.600 372.130,95.870 372.400,96.200 372.400 C 96.530 372.400,96.800 372.580,96.800 372.800 C 96.800 373.020,97.250 373.200,97.800 373.200 C 98.422 373.200,98.800 373.427,98.800 373.800 C 98.800 374.173,99.178 374.400,99.800 374.400 C 100.422 374.400,100.800 374.627,100.800 375.000 C 100.800 375.373,101.178 375.600,101.800 375.600 C 102.350 375.600,102.800 375.780,102.800 376.000 C 102.800 376.220,103.070 376.400,103.400 376.400 C 103.730 376.400,104.000 376.670,104.000 377.000 C 104.000 377.373,104.378 377.600,105.000 377.600 C 105.550 377.600,106.000 377.780,106.000 378.000 C 106.000 378.220,106.450 378.400,107.000 378.400 C 107.622 378.400,108.000 378.627,108.000 379.000 C 108.000 379.400,108.400 379.600,109.200 379.600 C 110.000 379.600,110.400 379.800,110.400 380.200 C 110.400 380.573,110.778 380.800,111.400 380.800 C 111.950 380.800,112.400 380.980,112.400 381.200 C 112.400 381.420,112.850 381.600,113.400 381.600 C 114.022 381.600,114.400 381.827,114.400 382.200 C 114.400 382.631,114.840 382.800,115.957 382.800 C 116.972 382.800,117.595 383.009,117.745 383.400 C 117.871 383.730,118.341 384.000,118.787 384.000 C 119.234 384.000,119.600 384.180,119.600 384.400 C 119.600 384.620,120.031 384.800,120.557 384.800 C 121.084 384.800,121.618 385.070,121.745 385.400 C 121.889 385.777,122.501 386.000,123.387 386.000 C 124.164 386.000,124.800 386.180,124.800 386.400 C 124.800 386.620,125.250 386.800,125.800 386.800 C 126.352 386.800,126.800 387.032,126.800 387.318 C 126.800 387.631,127.384 387.876,128.268 387.935 C 129.076 387.990,129.949 388.325,130.209 388.679 C 130.504 389.084,131.002 389.241,131.540 389.100 C 132.119 388.948,132.400 389.059,132.400 389.437 C 132.400 389.810,132.858 390.000,133.757 390.000 C 134.595 390.000,135.203 390.230,135.345 390.600 C 135.489 390.977,136.101 391.200,136.987 391.200 C 137.764 391.200,138.400 391.380,138.400 391.600 C 138.400 391.820,139.281 392.000,140.357 392.000 C 141.728 392.000,142.383 392.180,142.545 392.600 C 142.687 392.972,143.296 393.200,144.145 393.200 C 144.993 393.200,145.602 393.428,145.745 393.800 C 145.907 394.222,146.565 394.400,147.964 394.400 C 149.058 394.400,150.064 394.580,150.200 394.800 C 150.336 395.020,151.247 395.200,152.224 395.200 C 153.536 395.200,154.000 395.357,154.000 395.800 C 154.000 396.272,154.556 396.400,156.600 396.400 C 158.067 396.400,159.200 396.574,159.200 396.800 C 159.200 397.026,160.333 397.200,161.800 397.200 C 163.844 397.200,164.400 397.328,164.400 397.800 C 164.400 398.281,165.006 398.400,167.456 398.400 C 169.720 398.400,170.627 398.557,170.956 399.005 C 171.732 400.061,195.338 400.413,195.137 399.365 C 194.956 398.428,189.960 396.667,188.336 396.968 C 187.682 397.090,187.196 396.968,187.075 396.651 C 186.966 396.368,185.285 395.374,183.339 394.442 C 171.841 388.936,159.895 376.297,155.660 365.157 C 155.454 364.617,154.932 363.370,154.500 362.387 C 152.450 357.730,151.972 356.243,150.060 348.600 C 148.940 344.120,147.973 334.396,147.976 327.631 C 147.979 319.791,148.110 319.608,153.704 319.602 C 168.117 319.588,187.119 308.476,206.994 288.437 C 209.851 285.557,212.462 283.200,212.796 283.200 C 213.130 283.200,216.895 286.575,221.163 290.700 C 225.430 294.825,230.019 299.075,231.361 300.144 C 232.702 301.214,234.494 302.654,235.342 303.344 C 246.189 312.177,260.622 318.717,271.189 319.587 C 277.172 320.080,277.690 321.391,276.726 333.600 C 276.491 336.570,276.334 340.665,276.376 342.700 C 276.440 345.805,276.353 346.400,275.834 346.400 C 275.047 346.400,274.565 348.235,275.163 348.956 C 275.503 349.365,275.464 350.084,275.008 351.834 C 274.674 353.118,274.400 354.490,274.400 354.884 C 274.400 355.278,274.220 355.600,274.000 355.600 C 273.780 355.600,273.600 355.945,273.600 356.367 C 273.600 357.848,273.168 358.471,272.517 357.931 C 272.006 357.507,271.965 357.692,272.209 359.321 C 272.401 360.603,272.349 361.200,272.045 361.200 C 271.800 361.200,271.600 361.708,271.600 362.330 C 271.600 364.137,267.788 371.150,265.256 374.000 C 264.572 374.770,264.010 375.606,264.006 375.858 C 264.003 376.109,263.448 376.906,262.774 377.628 C 262.100 378.350,261.304 379.404,261.005 379.970 C 259.913 382.043,253.991 387.896,250.543 390.311 C 248.594 391.676,246.806 392.952,246.569 393.147 C 246.332 393.343,245.747 393.626,245.269 393.778 C 244.791 393.930,244.400 394.202,244.400 394.384 C 244.400 394.565,243.937 394.829,243.372 394.971 C 241.838 395.356,242.425 396.183,244.331 396.323 C 245.628 396.419,246.000 396.307,246.000 395.823 C 246.000 395.353,246.435 395.200,247.776 395.200 C 248.753 395.200,249.664 395.020,249.800 394.800 C 249.936 394.580,250.942 394.400,252.036 394.400 C 253.435 394.400,254.093 394.222,254.255 393.800 C 254.398 393.428,255.007 393.200,255.855 393.200 C 256.704 393.200,257.313 392.972,257.455 392.600 C 257.617 392.180,258.272 392.000,259.643 392.000 C 260.719 392.000,261.600 391.820,261.600 391.600 C 261.600 391.380,262.236 391.200,263.013 391.200 C 263.899 391.200,264.511 390.977,264.655 390.600 C 264.787 390.256,265.385 390.000,266.055 390.000 C 266.699 390.000,267.321 389.750,267.438 389.444 C 267.568 389.106,267.978 388.974,268.486 389.106 C 268.996 389.240,269.502 389.075,269.791 388.679 C 270.051 388.325,270.924 387.990,271.732 387.935 C 272.616 387.876,273.200 387.631,273.200 387.318 C 273.200 387.032,273.648 386.800,274.200 386.800 C 274.750 386.800,275.200 386.620,275.200 386.400 C 275.200 386.180,275.836 386.000,276.613 386.000 C 277.499 386.000,278.111 385.777,278.255 385.400 C 278.382 385.070,278.916 384.800,279.443 384.800 C 279.969 384.800,280.400 384.620,280.400 384.400 C 280.400 384.180,280.766 384.000,281.213 384.000 C 281.659 384.000,282.129 383.730,282.255 383.400 C 282.405 383.009,283.028 382.800,284.043 382.800 C 285.160 382.800,285.600 382.631,285.600 382.200 C 285.600 381.827,285.978 381.600,286.600 381.600 C 287.150 381.600,287.600 381.420,287.600 381.200 C 287.600 380.980,288.050 380.800,288.600 380.800 C 289.222 380.800,289.600 380.573,289.600 380.200 C 289.600 379.795,290.005 379.600,290.843 379.600 C 291.783 379.600,292.030 379.454,291.855 379.000 C 291.683 378.550,291.921 378.400,292.813 378.400 C 293.466 378.400,294.000 378.220,294.000 378.000 C 294.000 377.780,294.450 377.600,295.000 377.600 C 295.622 377.600,296.000 377.373,296.000 377.000 C 296.000 376.670,296.270 376.400,296.600 376.400 C 296.930 376.400,297.200 376.220,297.200 376.000 C 297.200 375.780,297.650 375.600,298.200 375.600 C 298.822 375.600,299.200 375.373,299.200 375.000 C 299.200 374.627,299.578 374.400,300.200 374.400 C 300.822 374.400,301.200 374.173,301.200 373.800 C 301.200 373.427,301.578 373.200,302.200 373.200 C 302.750 373.200,303.200 373.020,303.200 372.800 C 303.200 372.580,303.470 372.400,303.800 372.400 C 304.130 372.400,304.400 372.130,304.400 371.800 C 304.400 371.427,304.778 371.200,305.400 371.200 C 305.950 371.200,306.400 371.040,306.400 370.843 C 306.400 370.647,306.850 370.374,307.400 370.236 C 307.950 370.098,308.400 369.808,308.400 369.592 C 308.400 369.377,308.670 369.200,309.000 369.200 C 309.330 369.200,309.600 368.930,309.600 368.600 C 309.600 368.227,309.978 368.000,310.600 368.000 C 311.150 368.000,311.600 367.820,311.600 367.600 C 311.600 367.380,311.870 367.200,312.200 367.200 C 312.530 367.200,312.800 366.930,312.800 366.600 C 312.800 366.270,313.154 366.000,313.586 366.000 C 314.409 366.000,316.800 363.927,316.800 363.213 C 316.800 362.986,317.263 362.800,317.829 362.800 C 318.883 362.800,320.000 361.992,320.000 361.229 C 320.000 360.993,320.270 360.800,320.600 360.800 C 320.930 360.800,321.200 360.530,321.200 360.200 C 321.200 359.827,321.578 359.600,322.200 359.600 C 322.750 359.600,323.200 359.420,323.200 359.200 C 323.200 358.980,323.470 358.800,323.800 358.800 C 324.130 358.800,324.400 358.607,324.400 358.371 C 324.400 357.766,325.439 356.800,326.090 356.800 C 326.391 356.800,327.079 356.268,327.619 355.617 C 328.158 354.966,328.795 354.426,329.032 354.417 C 329.270 354.408,329.706 353.950,330.000 353.400 C 330.294 352.850,330.709 352.400,330.922 352.400 C 331.134 352.400,331.725 351.950,332.235 351.400 C 332.745 350.850,333.420 350.400,333.735 350.400 C 334.050 350.400,334.603 349.950,334.963 349.400 C 335.324 348.850,335.884 348.400,336.209 348.400 C 336.534 348.400,336.800 348.130,336.800 347.800 C 336.800 347.470,337.040 347.200,337.332 347.200 C 337.625 347.200,338.106 346.750,338.400 346.200 C 338.694 345.650,339.175 345.200,339.468 345.200 C 339.760 345.200,340.000 345.022,340.000 344.805 C 340.000 344.190,341.304 342.817,341.671 343.044 C 341.852 343.156,342.000 342.967,342.000 342.624 C 342.000 342.281,342.281 342.000,342.624 342.000 C 342.967 342.000,343.156 341.852,343.044 341.671 C 342.817 341.304,344.190 340.000,344.805 340.000 C 345.022 340.000,345.200 339.760,345.200 339.468 C 345.200 339.175,345.650 338.694,346.200 338.400 C 346.750 338.106,347.200 337.625,347.200 337.332 C 347.200 337.040,347.470 336.800,347.800 336.800 C 348.130 336.800,348.400 336.534,348.400 336.209 C 348.400 335.884,348.850 335.324,349.400 334.963 C 349.950 334.603,350.400 334.050,350.400 333.735 C 350.400 333.420,350.850 332.745,351.400 332.235 C 351.950 331.725,352.400 331.134,352.400 330.922 C 352.400 330.709,352.850 330.294,353.400 330.000 C 353.950 329.706,354.408 329.270,354.417 329.032 C 354.426 328.795,354.966 328.158,355.617 327.619 C 356.268 327.079,356.800 326.391,356.800 326.090 C 356.800 325.439,357.766 324.400,358.371 324.400 C 358.607 324.400,358.800 324.130,358.800 323.800 C 358.800 323.470,358.980 323.200,359.200 323.200 C 359.420 323.200,359.600 322.750,359.600 322.200 C 359.600 321.578,359.827 321.200,360.200 321.200 C 360.530 321.200,360.800 320.930,360.800 320.600 C 360.800 320.270,360.993 320.000,361.229 320.000 C 361.992 320.000,362.800 318.883,362.800 317.829 C 362.800 317.263,362.986 316.800,363.213 316.800 C 363.927 316.800,366.000 314.409,366.000 313.586 C 366.000 313.154,366.270 312.800,366.600 312.800 C 366.930 312.800,367.200 312.530,367.200 312.200 C 367.200 311.870,367.380 311.600,367.600 311.600 C 367.820 311.600,368.000 311.150,368.000 310.600 C 368.000 309.978,368.227 309.600,368.600 309.600 C 368.930 309.600,369.200 309.330,369.200 309.000 C 369.200 308.670,369.377 308.400,369.592 308.400 C 369.808 308.400,370.098 307.950,370.236 307.400 C 370.374 306.850,370.647 306.400,370.843 306.400 C 371.040 306.400,371.200 305.950,371.200 305.400 C 371.200 304.778,371.427 304.400,371.800 304.400 C 372.130 304.400,372.400 304.130,372.400 303.800 C 372.400 303.470,372.580 303.200,372.800 303.200 C 373.020 303.200,373.200 302.750,373.200 302.200 C 373.200 301.578,373.427 301.200,373.800 301.200 C 374.173 301.200,374.400 300.822,374.400 300.200 C 374.400 299.578,374.627 299.200,375.000 299.200 C 375.373 299.200,375.600 298.822,375.600 298.200 C 375.600 297.650,375.780 297.200,376.000 297.200 C 376.220 297.200,376.400 296.930,376.400 296.600 C 376.400 296.270,376.670 296.000,377.000 296.000 C 377.373 296.000,377.600 295.622,377.600 295.000 C 377.600 294.450,377.780 294.000,378.000 294.000 C 378.220 294.000,378.400 293.466,378.400 292.813 C 378.400 291.921,378.550 291.683,379.000 291.855 C 379.454 292.030,379.600 291.783,379.600 290.843 C 379.600 290.005,379.795 289.600,380.200 289.600 C 380.573 289.600,380.800 289.222,380.800 288.600 C 380.800 288.050,380.980 287.600,381.200 287.600 C 381.420 287.600,381.600 287.150,381.600 286.600 C 381.600 285.978,381.827 285.600,382.200 285.600 C 382.631 285.600,382.800 285.160,382.800 284.043 C 382.800 283.028,383.009 282.405,383.400 282.255 C 383.730 282.129,384.000 281.659,384.000 281.213 C 384.000 280.766,384.180 280.400,384.400 280.400 C 384.620 280.400,384.800 279.969,384.800 279.443 C 384.800 278.916,385.070 278.382,385.400 278.255 C 385.777 278.111,386.000 277.499,386.000 276.613 C 386.000 275.836,386.180 275.200,386.400 275.200 C 386.620 275.200,386.800 274.750,386.800 274.200 C 386.800 273.648,387.032 273.200,387.318 273.200 C 387.631 273.200,387.876 272.616,387.935 271.732 C 387.990 270.924,388.325 270.051,388.679 269.791 C 389.075 269.502,389.240 268.996,389.106 268.486 C 388.974 267.978,389.106 267.568,389.444 267.438 C 389.750 267.321,390.000 266.699,390.000 266.055 C 390.000 265.385,390.256 264.787,390.600 264.655 C 390.977 264.511,391.200 263.899,391.200 263.013 C 391.200 262.236,391.380 261.600,391.600 261.600 C 391.820 261.600,392.000 260.719,392.000 259.643 C 392.000 258.272,392.180 257.617,392.600 257.455 C 392.972 257.313,393.200 256.704,393.200 255.855 C 393.200 255.007,393.428 254.398,393.800 254.255 C 394.222 254.093,394.400 253.435,394.400 252.036 C 394.400 250.942,394.580 249.936,394.800 249.800 C 395.020 249.664,395.200 248.753,395.200 247.776 C 395.200 246.464,395.357 246.000,395.800 246.000 C 396.272 246.000,396.400 245.444,396.400 243.400 C 396.400 241.933,396.574 240.800,396.800 240.800 C 397.026 240.800,397.200 239.667,397.200 238.200 C 397.200 236.156,397.328 235.600,397.800 235.600 C 398.281 235.600,398.400 234.994,398.400 232.544 C 398.400 230.095,398.539 229.386,399.100 228.976 C 399.755 228.497,399.800 226.647,399.800 200.000 C 399.800 173.353,399.755 171.503,399.100 171.024 C 398.539 170.614,398.400 169.905,398.400 167.456 C 398.400 165.006,398.281 164.400,397.800 164.400 C 397.328 164.400,397.200 163.844,397.200 161.800 C 397.200 160.333,397.026 159.200,396.800 159.200 C 396.574 159.200,396.400 158.067,396.400 156.600 C 396.400 154.556,396.272 154.000,395.800 154.000 C 395.357 154.000,395.200 153.536,395.200 152.224 C 395.200 151.247,395.020 150.336,394.800 150.200 C 394.580 150.064,394.400 149.058,394.400 147.964 C 394.400 146.565,394.222 145.907,393.800 145.745 C 393.428 145.602,393.200 144.993,393.200 144.145 C 393.200 143.296,392.972 142.687,392.600 142.545 C 392.180 142.383,392.000 141.728,392.000 140.357 C 392.000 139.281,391.820 138.400,391.600 138.400 C 391.380 138.400,391.200 137.764,391.200 136.987 C 391.200 136.101,390.977 135.489,390.600 135.345 C 390.230 135.203,390.000 134.595,390.000 133.757 C 390.000 132.858,389.810 132.400,389.437 132.400 C 389.059 132.400,388.948 132.119,389.100 131.540 C 389.241 131.002,389.084 130.504,388.679 130.209 C 388.325 129.949,387.990 129.076,387.935 128.268 C 387.876 127.384,387.631 126.800,387.318 126.800 C 387.032 126.800,386.800 126.352,386.800 125.800 C 386.800 125.250,386.620 124.800,386.400 124.800 C 386.180 124.800,386.000 124.164,386.000 123.387 C 386.000 122.501,385.777 121.889,385.400 121.745 C 385.070 121.618,384.800 121.084,384.800 120.557 C 384.800 120.031,384.620 119.600,384.400 119.600 C 384.180 119.600,384.000 119.234,384.000 118.787 C 384.000 118.341,383.730 117.871,383.400 117.745 C 383.009 117.595,382.800 116.972,382.800 115.957 C 382.800 114.840,382.631 114.400,382.200 114.400 C 381.827 114.400,381.600 114.022,381.600 113.400 C 381.600 112.850,381.420 112.400,381.200 112.400 C 380.980 112.400,380.800 111.950,380.800 111.400 C 380.800 110.778,380.573 110.400,380.200 110.400 C 379.800 110.400,379.600 110.000,379.600 109.200 C 379.600 108.400,379.400 108.000,379.000 108.000 C 378.627 108.000,378.400 107.622,378.400 107.000 C 378.400 106.450,378.220 106.000,378.000 106.000 C 377.780 106.000,377.600 105.550,377.600 105.000 C 377.600 104.378,377.373 104.000,377.000 104.000 C 376.670 104.000,376.400 103.730,376.400 103.400 C 376.400 103.070,376.220 102.800,376.000 102.800 C 375.780 102.800,375.600 102.350,375.600 101.800 C 375.600 101.178,375.373 100.800,375.000 100.800 C 374.627 100.800,374.400 100.422,374.400 99.800 C 374.400 99.178,374.173 98.800,373.800 98.800 C 373.427 98.800,373.200 98.422,373.200 97.800 C 373.200 97.250,373.020 96.800,372.800 96.800 C 372.580 96.800,372.400 96.530,372.400 96.200 C 372.400 95.870,372.130 95.600,371.800 95.600 C 371.427 95.600,371.200 95.222,371.200 94.600 C 371.200 94.050,371.040 93.600,370.843 93.600 C 370.647 93.600,370.374 93.150,370.236 92.600 C 370.098 92.050,369.808 91.600,369.592 91.600 C 369.377 91.600,369.200 91.330,369.200 91.000 C 369.200 90.670,368.879 90.400,368.486 90.400 C 367.504 90.400,367.598 92.074,368.719 94.533 C 369.204 95.596,369.600 96.625,369.600 96.820 C 369.600 97.014,369.856 97.764,370.168 98.486 C 372.319 103.463,373.203 120.131,371.637 126.200 C 371.410 127.080,371.316 128.100,371.429 128.466 C 371.541 128.833,371.445 129.248,371.216 129.390 C 370.987 129.531,370.800 129.975,370.800 130.375 C 370.800 130.775,370.530 131.326,370.200 131.600 C 369.870 131.874,369.600 132.605,369.600 133.225 C 369.600 133.845,369.420 134.464,369.200 134.600 C 368.980 134.736,368.800 135.157,368.800 135.535 C 368.800 139.664,357.718 153.795,348.600 161.292 C 346.414 163.089,340.145 167.200,339.590 167.200 C 339.289 167.200,338.584 167.632,338.022 168.161 C 336.577 169.520,329.757 172.890,326.200 174.002 C 325.320 174.277,324.187 174.659,323.681 174.851 C 323.176 175.043,322.357 175.200,321.861 175.200 C 321.366 175.200,320.779 175.381,320.559 175.601 C 319.829 176.331,314.168 177.717,308.200 178.627 C 298.848 180.053,277.924 180.337,268.600 179.164 C 266.840 178.943,262.657 178.628,259.305 178.464 C 252.622 178.137,252.673 178.157,251.412 175.297 C 250.043 172.189,254.344 166.047,258.600 165.032 C 259.260 164.874,271.724 164.615,286.298 164.455 C 304.797 164.252,312.930 164.030,313.240 163.720 C 313.846 163.114,313.494 162.595,310.000 158.939 C 308.350 157.212,304.390 152.832,301.200 149.205 C 298.010 145.578,294.314 141.438,292.987 140.005 C 291.659 138.572,289.321 135.960,287.791 134.200 C 286.261 132.440,282.397 128.133,279.204 124.629 C 276.012 121.125,272.431 117.165,271.248 115.829 C 268.065 112.237,267.121 111.190,260.993 104.446 C 251.583 94.092,251.455 93.899,252.436 91.492 C 252.971 90.180,256.919 85.113,259.677 82.200 C 260.510 81.320,261.193 80.484,261.196 80.343 C 261.200 80.082,266.705 75.356,269.993 72.790 C 276.228 67.924,287.599 61.430,291.400 60.563 C 292.060 60.413,292.780 60.167,293.000 60.018 C 293.220 59.869,294.480 59.420,295.800 59.021 C 297.120 58.623,298.613 58.140,299.119 57.948 C 299.624 57.757,300.557 57.600,301.193 57.600 C 301.828 57.600,302.855 57.406,303.474 57.168 C 309.093 55.012,324.092 55.571,332.800 58.262 C 335.447 59.080,343.027 62.528,343.600 63.174 C 343.710 63.298,345.015 64.209,346.500 65.197 C 347.985 66.185,349.200 67.130,349.200 67.297 C 349.200 67.464,349.470 67.600,349.800 67.600 C 350.130 67.600,350.400 67.759,350.400 67.953 C 350.400 68.148,350.757 68.400,351.193 68.514 C 351.868 68.690,351.925 68.608,351.579 67.961 C 351.355 67.542,350.998 67.200,350.786 67.200 C 350.574 67.200,350.400 66.865,350.400 66.456 C 350.400 66.047,349.950 65.374,349.400 64.961 C 348.850 64.548,348.400 63.972,348.400 63.681 C 348.400 63.391,348.208 63.272,347.973 63.417 C 347.738 63.562,347.453 63.325,347.339 62.890 C 347.226 62.455,346.698 61.866,346.166 61.582 C 345.635 61.298,345.200 60.825,345.200 60.532 C 345.200 60.240,345.022 60.000,344.805 60.000 C 344.190 60.000,342.817 58.696,343.044 58.329 C 343.156 58.148,342.967 58.000,342.624 58.000 C 342.281 58.000,342.000 57.719,342.000 57.376 C 342.000 57.033,341.852 56.844,341.671 56.956 C 341.304 57.183,340.000 55.810,340.000 55.195 C 340.000 54.978,339.760 54.800,339.468 54.800 C 339.175 54.800,338.702 54.365,338.418 53.834 C 338.134 53.302,337.545 52.774,337.110 52.661 C 336.675 52.547,336.438 52.262,336.583 52.027 C 336.728 51.792,336.609 51.600,336.319 51.600 C 336.028 51.600,335.452 51.150,335.039 50.600 C 334.626 50.050,334.035 49.600,333.725 49.600 C 333.415 49.600,332.745 49.150,332.235 48.600 C 331.725 48.050,331.104 47.600,330.854 47.600 C 330.604 47.600,330.400 47.407,330.400 47.171 C 330.400 46.618,329.382 45.600,328.829 45.600 C 328.593 45.600,328.400 45.330,328.400 45.000 C 328.400 44.670,328.149 44.400,327.843 44.400 C 327.536 44.400,327.182 44.130,327.055 43.800 C 326.929 43.470,326.537 43.200,326.184 43.200 C 325.455 43.200,324.400 42.271,324.400 41.629 C 324.400 41.393,324.130 41.200,323.800 41.200 C 323.470 41.200,323.200 41.020,323.200 40.800 C 323.200 40.580,322.750 40.400,322.200 40.400 C 321.578 40.400,321.200 40.173,321.200 39.800 C 321.200 39.470,320.930 39.200,320.600 39.200 C 320.270 39.200,320.000 39.007,320.000 38.771 C 320.000 38.008,318.883 37.200,317.829 37.200 C 317.263 37.200,316.800 37.014,316.800 36.787 C 316.800 36.073,314.409 34.000,313.586 34.000 C 313.154 34.000,312.800 33.730,312.800 33.400 C 312.800 33.070,312.530 32.800,312.200 32.800 C 311.870 32.800,311.600 32.620,311.600 32.400 C 311.600 32.180,311.150 32.000,310.600 32.000 C 309.978 32.000,309.600 31.773,309.600 31.400 C 309.600 31.070,309.330 30.800,309.000 30.800 C 308.670 30.800,308.400 30.623,308.400 30.408 C 308.400 30.192,307.950 29.902,307.400 29.764 C 306.850 29.626,306.400 29.353,306.400 29.157 C 306.400 28.960,305.950 28.800,305.400 28.800 C 304.778 28.800,304.400 28.573,304.400 28.200 C 304.400 27.870,304.130 27.600,303.800 27.600 C 303.470 27.600,303.200 27.420,303.200 27.200 C 303.200 26.980,302.750 26.800,302.200 26.800 C 301.578 26.800,301.200 26.573,301.200 26.200 C 301.200 25.827,300.822 25.600,300.200 25.600 C 299.578 25.600,299.200 25.373,299.200 25.000 C 299.200 24.627,298.822 24.400,298.200 24.400 C 297.650 24.400,297.200 24.220,297.200 24.000 C 297.200 23.780,296.930 23.600,296.600 23.600 C 296.270 23.600,296.000 23.330,296.000 23.000 C 296.000 22.627,295.622 22.400,295.000 22.400 C 294.450 22.400,294.000 22.220,294.000 22.000 C 294.000 21.780,293.550 21.600,293.000 21.600 C 292.378 21.600,292.000 21.373,292.000 21.000 C 292.000 20.600,291.600 20.400,290.800 20.400 C 290.000 20.400,289.600 20.200,289.600 19.800 C 289.600 19.427,289.222 19.200,288.600 19.200 C 288.050 19.200,287.600 19.020,287.600 18.800 C 287.600 18.580,287.150 18.400,286.600 18.400 C 285.978 18.400,285.600 18.173,285.600 17.800 C 285.600 17.369,285.160 17.200,284.043 17.200 C 283.028 17.200,282.405 16.991,282.255 16.600 C 282.129 16.270,281.659 16.000,281.213 16.000 C 280.766 16.000,280.400 15.820,280.400 15.600 C 280.400 15.380,279.969 15.200,279.443 15.200 C 278.916 15.200,278.382 14.930,278.255 14.600 C 278.111 14.223,277.499 14.000,276.613 14.000 C 275.836 14.000,275.200 13.820,275.200 13.600 C 275.200 13.380,274.750 13.200,274.200 13.200 C 273.578 13.200,273.200 12.973,273.200 12.600 C 273.200 12.169,272.760 12.000,271.643 12.000 C 270.579 12.000,270.007 11.796,269.838 11.354 C 269.670 10.917,269.268 10.770,268.595 10.899 C 267.929 11.026,267.600 10.909,267.600 10.545 C 267.600 10.192,267.121 10.000,266.243 10.000 C 265.405 10.000,264.797 9.770,264.655 9.400 C 264.511 9.023,263.899 8.800,263.013 8.800 C 262.236 8.800,261.600 8.620,261.600 8.400 C 261.600 8.180,260.719 8.000,259.643 8.000 C 258.272 8.000,257.617 7.820,257.455 7.400 C 257.313 7.028,256.704 6.800,255.855 6.800 C 255.007 6.800,254.398 6.572,254.255 6.200 C 254.093 5.777,253.432 5.600,252.013 5.600 C 250.906 5.600,250.000 5.420,250.000 5.200 C 250.000 4.980,249.100 4.800,248.000 4.800 C 246.489 4.800,246.000 4.653,246.000 4.200 C 246.000 3.728,245.444 3.600,243.400 3.600 C 241.933 3.600,240.800 3.426,240.800 3.200 C 240.800 2.974,239.667 2.800,238.200 2.800 C 236.156 2.800,235.600 2.672,235.600 2.200 C 235.600 1.719,234.994 1.600,232.544 1.600 C 230.114 1.600,229.385 1.459,228.984 0.911 C 228.489 0.233,188.980 -0.235,175.282 0.275 M364.133 84.632 C 364.133 84.944,364.283 85.200,364.467 85.200 C 364.650 85.200,364.800 85.485,364.800 85.833 C 364.800 86.182,365.014 86.395,365.275 86.308 C 366.094 86.035,366.008 85.425,365.053 84.732 C 364.305 84.188,364.133 84.169,364.133 84.632 M366.000 87.800 C 366.000 88.130,366.270 88.400,366.600 88.400 C 366.933 88.400,367.200 88.756,367.200 89.200 C 367.200 89.640,367.380 90.000,367.600 90.000 C 367.820 90.000,368.000 89.640,368.000 89.200 C 368.000 88.760,367.820 88.400,367.600 88.400 C 367.380 88.400,367.200 88.130,367.200 87.800 C 367.200 87.470,366.930 87.200,366.600 87.200 C 366.270 87.200,366.000 87.470,366.000 87.800 M223.793 150.817 C 224.452 152.674,225.410 156.035,226.184 159.200 C 226.533 160.630,226.980 162.430,227.178 163.200 C 227.375 163.970,227.807 165.680,228.138 167.000 C 228.469 168.320,228.933 170.141,229.170 171.046 C 230.317 175.438,229.968 175.604,219.611 175.586 C 211.683 175.572,211.362 175.540,210.293 174.665 C 209.177 173.752,209.249 171.946,210.455 170.620 C 210.645 170.411,210.800 169.987,210.800 169.678 C 210.800 169.368,211.307 168.459,211.927 167.658 C 212.547 166.856,213.366 165.570,213.746 164.800 C 214.126 164.030,214.971 162.500,215.623 161.400 C 216.275 160.300,217.633 157.702,218.640 155.626 C 221.718 149.284,222.869 148.211,223.793 150.817 M182.605 162.981 C 183.372 164.180,184.000 165.275,184.000 165.413 C 184.000 165.694,186.497 169.651,187.651 171.200 C 188.061 171.750,188.754 172.861,189.191 173.670 L 189.985 175.140 188.893 175.371 C 187.411 175.685,177.294 174.654,176.776 174.136 C 176.491 173.851,176.550 172.988,176.965 171.361 C 177.296 170.063,177.954 167.470,178.427 165.600 C 179.860 159.935,180.429 159.578,182.605 162.981 M220.225 208.900 C 221.488 210.935,223.044 213.441,223.683 214.469 C 224.321 215.497,225.124 216.571,225.467 216.855 C 225.809 217.140,226.526 218.279,227.059 219.386 C 228.369 222.109,229.766 224.477,231.961 227.700 C 251.626 256.567,253.229 259.300,252.421 262.600 C 252.206 263.480,251.910 265.009,251.763 265.998 C 250.694 273.211,244.010 277.895,238.460 275.323 C 234.415 273.448,233.223 271.758,231.559 265.527 C 229.700 258.573,222.126 227.955,219.213 215.620 C 218.514 212.660,217.799 209.960,217.624 209.620 C 217.449 209.279,217.214 208.145,217.102 207.100 C 216.792 204.211,217.605 204.679,220.225 208.900 M239.300 395.700 C 239.391 395.975,239.766 396.258,240.132 396.329 C 240.596 396.419,240.724 396.268,240.556 395.829 C 240.272 395.090,239.055 394.965,239.300 395.700 " stroke="none" fill="#fbfbfb" fill-rule="evenodd"></path><path id="path4" d="M309.600 56.218 C 306.850 56.495,304.093 56.919,303.474 57.161 C 302.855 57.402,301.828 57.600,301.193 57.600 C 300.557 57.600,299.624 57.757,299.119 57.948 C 298.613 58.140,297.120 58.623,295.800 59.021 C 294.480 59.420,293.220 59.869,293.000 60.018 C 292.780 60.167,292.060 60.413,291.400 60.563 C 287.599 61.430,276.228 67.924,269.993 72.790 C 266.705 75.356,261.200 80.082,261.196 80.343 C 261.193 80.484,260.510 81.320,259.677 82.200 C 256.919 85.113,252.971 90.180,252.436 91.492 C 251.455 93.899,251.583 94.092,260.993 104.446 C 267.121 111.190,268.065 112.237,271.248 115.829 C 272.431 117.165,276.012 121.125,279.204 124.629 C 282.397 128.133,286.261 132.440,287.791 134.200 C 289.321 135.960,291.659 138.572,292.987 140.005 C 294.314 141.438,298.010 145.578,301.200 149.205 C 304.390 152.832,308.350 157.212,310.000 158.939 C 313.494 162.595,313.846 163.114,313.240 163.720 C 312.930 164.030,304.797 164.252,286.298 164.455 C 271.724 164.615,259.260 164.874,258.600 165.032 C 254.344 166.047,250.043 172.189,251.412 175.297 C 252.673 178.157,252.622 178.137,259.305 178.464 C 262.657 178.628,266.840 178.943,268.600 179.164 C 277.924 180.337,298.848 180.053,308.200 178.627 C 314.168 177.717,319.829 176.331,320.559 175.601 C 320.779 175.381,321.366 175.200,321.861 175.200 C 322.357 175.200,323.176 175.043,323.681 174.851 C 324.187 174.659,325.320 174.277,326.200 174.002 C 329.757 172.890,336.577 169.520,338.022 168.161 C 338.584 167.632,339.289 167.200,339.590 167.200 C 340.145 167.200,346.414 163.089,348.600 161.292 C 357.718 153.795,368.800 139.664,368.800 135.535 C 368.800 135.157,368.980 134.736,369.200 134.600 C 369.420 134.464,369.600 133.845,369.600 133.225 C 369.600 132.605,369.870 131.874,370.200 131.600 C 370.530 131.326,370.800 130.775,370.800 130.375 C 370.800 129.975,370.987 129.531,371.216 129.390 C 371.445 129.248,371.541 128.833,371.429 128.466 C 371.316 128.100,371.410 127.080,371.637 126.200 C 372.781 121.764,372.621 107.447,371.383 103.547 C 371.259 103.156,371.005 101.973,370.819 100.918 C 370.455 98.861,368.652 93.786,368.010 93.012 C 367.795 92.754,367.692 91.970,367.781 91.271 C 367.869 90.572,367.775 90.000,367.571 90.000 C 367.367 90.000,367.200 89.640,367.200 89.200 C 367.200 88.756,366.933 88.400,366.600 88.400 C 366.201 88.400,366.000 88.001,366.000 87.213 C 366.000 86.321,365.850 86.083,365.400 86.255 C 365.020 86.401,364.800 86.250,364.800 85.843 C 364.800 85.489,364.598 85.200,364.351 85.200 C 364.058 85.200,364.093 84.964,364.451 84.523 C 364.824 84.063,364.840 83.943,364.500 84.147 C 364.185 84.336,364.000 84.216,364.000 83.824 C 364.000 83.481,363.730 83.200,363.400 83.200 C 363.027 83.200,362.800 82.822,362.800 82.200 C 362.800 81.650,362.620 81.200,362.400 81.200 C 362.180 81.200,362.000 80.930,362.000 80.600 C 362.000 80.270,361.730 80.000,361.400 80.000 C 361.070 80.000,360.800 79.730,360.800 79.400 C 360.800 79.070,360.530 78.800,360.200 78.800 C 359.854 78.800,359.600 78.439,359.600 77.947 C 359.600 77.478,359.006 76.533,358.280 75.847 C 357.554 75.161,356.835 74.274,356.683 73.875 C 356.530 73.476,356.220 73.264,355.993 73.404 C 355.766 73.545,355.606 73.511,355.637 73.330 C 355.772 72.554,355.577 71.607,355.300 71.694 C 354.937 71.808,352.400 69.362,352.400 68.899 C 352.400 68.718,351.998 68.540,351.506 68.503 C 351.014 68.466,350.549 68.248,350.473 68.018 C 350.396 67.788,350.078 67.600,349.767 67.600 C 349.455 67.600,349.200 67.464,349.200 67.297 C 349.200 67.130,347.985 66.185,346.500 65.197 C 345.015 64.209,343.710 63.298,343.600 63.174 C 343.098 62.607,335.300 59.000,333.200 58.364 C 325.134 55.918,318.524 55.317,309.600 56.218 M322.408 57.394 C 327.882 57.695,333.372 59.049,337.441 61.103 C 344.320 64.574,348.412 67.658,355.420 74.649 C 356.990 76.215,358.392 77.745,358.535 78.049 C 358.906 78.835,359.686 80.000,360.515 81.003 C 365.120 86.578,370.013 100.164,371.117 110.442 C 372.743 125.573,367.570 138.847,354.400 153.341 C 350.591 157.533,342.822 164.000,341.595 164.000 C 341.422 164.000,340.401 164.592,339.325 165.316 C 336.830 166.995,325.761 172.400,324.818 172.400 C 324.638 172.400,323.976 172.669,323.346 172.998 C 322.716 173.326,321.893 173.596,321.519 173.598 C 321.144 173.599,320.424 173.759,319.919 173.954 C 318.985 174.314,315.188 175.188,311.200 175.961 C 299.941 178.145,269.470 178.123,255.800 175.922 C 251.553 175.238,251.226 174.663,253.030 171.058 C 255.689 165.744,254.148 166.002,285.800 165.569 C 300.320 165.370,312.863 165.098,313.673 164.963 C 316.556 164.485,316.298 164.073,306.563 153.600 C 305.438 152.390,303.817 150.591,302.959 149.602 C 302.102 148.613,300.665 146.993,299.766 146.002 C 296.571 142.479,293.359 138.915,290.400 135.610 C 288.750 133.767,287.220 132.065,287.000 131.828 C 286.780 131.590,285.252 129.867,283.604 127.998 C 281.957 126.129,279.598 123.520,278.364 122.200 C 277.129 120.880,274.520 118.000,272.566 115.800 C 270.611 113.600,268.916 111.710,268.798 111.600 C 268.681 111.490,266.342 108.880,263.600 105.800 C 260.858 102.720,258.511 100.110,258.384 100.000 C 257.239 99.008,253.566 94.202,253.376 93.448 C 252.947 91.738,255.165 88.672,262.200 81.245 C 270.626 72.351,284.116 63.750,294.600 60.586 C 296.580 59.988,298.997 59.252,299.971 58.950 C 300.945 58.647,302.239 58.400,302.845 58.400 C 303.452 58.400,304.454 58.208,305.073 57.972 C 305.691 57.737,307.548 57.402,309.199 57.228 C 312.100 56.923,314.324 56.951,322.408 57.394 M65.200 57.584 C 63.258 58.039,59.695 58.821,57.884 59.190 C 56.244 59.524,55.715 59.848,56.132 60.265 C 56.277 60.411,56.856 60.321,57.417 60.065 C 57.978 59.809,58.800 59.600,59.244 59.600 C 59.687 59.600,60.894 59.350,61.925 59.045 C 66.820 57.598,78.928 57.030,84.376 57.993 C 92.374 59.407,96.743 60.504,100.200 61.966 C 100.640 62.152,101.810 62.612,102.800 62.989 C 119.726 69.430,135.337 82.588,147.119 100.346 C 148.923 103.066,150.400 105.373,150.400 105.473 C 150.400 105.572,150.850 106.243,151.400 106.964 C 151.950 107.686,152.400 108.424,152.400 108.606 C 152.400 108.788,152.636 109.221,152.925 109.569 C 153.214 109.916,153.782 110.966,154.187 111.903 L 154.924 113.605 153.962 114.947 C 153.433 115.684,151.560 117.878,149.800 119.822 C 141.921 128.525,134.385 136.887,131.437 140.200 C 129.675 142.180,127.055 145.060,125.614 146.600 C 124.174 148.140,122.210 150.300,121.249 151.400 C 120.288 152.500,118.106 154.930,116.400 156.800 C 112.030 161.588,110.400 163.596,110.400 164.190 C 110.400 164.600,114.543 164.754,130.700 164.944 C 153.867 165.217,158.162 165.491,160.027 166.819 C 161.590 167.932,164.032 171.687,164.128 173.125 L 164.200 174.200 154.200 174.708 C 148.700 174.987,134.393 175.317,122.407 175.441 C 97.603 175.698,96.250 175.597,82.000 172.428 C 80.501 172.094,75.989 170.573,72.400 169.192 C 71.190 168.726,69.567 168.110,68.792 167.823 C 44.950 158.981,23.950 132.984,23.965 112.330 C 23.970 105.375,23.473 102.468,22.647 104.621 C 22.511 104.977,22.578 105.137,22.805 104.997 C 23.022 104.863,23.200 105.078,23.199 105.476 C 23.192 109.832,23.721 119.349,24.040 120.600 C 27.855 135.597,40.453 152.224,54.200 160.406 C 55.080 160.929,55.890 161.467,56.000 161.600 C 56.260 161.915,58.316 163.123,61.800 165.007 C 63.340 165.840,64.870 166.668,65.200 166.847 C 70.755 169.868,81.657 173.290,89.951 174.616 C 92.015 174.946,93.821 175.289,93.965 175.378 C 95.533 176.348,122.749 176.735,138.600 176.014 C 160.869 175.001,164.746 174.717,164.990 174.082 C 165.639 172.390,161.353 166.215,159.208 165.752 C 158.654 165.632,157.660 165.359,157.000 165.145 C 155.666 164.713,147.155 164.466,126.147 164.250 C 118.418 164.170,111.896 163.983,111.655 163.834 C 111.201 163.554,111.598 163.046,116.200 158.012 C 117.520 156.568,120.040 153.776,121.800 151.806 C 123.560 149.837,126.080 147.048,127.400 145.608 C 128.720 144.169,132.770 139.671,136.400 135.612 C 140.030 131.553,144.080 127.052,145.400 125.610 C 150.217 120.346,153.966 116.151,154.801 115.090 C 155.765 113.864,155.683 113.329,154.057 110.200 C 153.485 109.100,153.013 107.841,153.009 107.402 C 153.004 106.963,152.789 106.603,152.532 106.602 C 152.107 106.600,148.217 101.030,147.700 99.683 C 147.581 99.374,147.105 98.722,146.642 98.235 C 146.179 97.749,144.990 96.207,144.000 94.809 C 143.010 93.412,141.271 91.100,140.136 89.672 C 139.001 88.245,138.159 86.852,138.264 86.578 C 138.369 86.304,138.190 86.107,137.866 86.140 C 137.541 86.173,135.774 84.760,133.938 83.000 C 123.411 72.909,120.467 70.776,109.600 65.364 C 102.568 61.863,97.871 60.236,88.800 58.164 C 85.475 57.404,67.822 56.970,65.200 57.584 M221.494 150.512 C 220.932 151.249,219.648 153.551,218.640 155.626 C 217.633 157.702,216.275 160.300,215.623 161.400 C 214.971 162.500,214.126 164.030,213.746 164.800 C 213.366 165.570,212.547 166.856,211.927 167.658 C 211.307 168.459,210.800 169.368,210.800 169.678 C 210.800 169.987,210.645 170.411,210.455 170.620 C 209.249 171.946,209.177 173.752,210.293 174.665 C 211.362 175.540,211.683 175.572,219.611 175.586 C 229.968 175.604,230.317 175.438,229.170 171.046 C 228.933 170.141,228.469 168.320,228.138 167.000 C 227.807 165.680,227.375 163.970,227.178 163.200 C 226.980 162.430,226.533 160.630,226.184 159.200 C 223.802 149.454,223.180 148.302,221.494 150.512 M223.699 153.700 C 224.033 154.635,224.606 156.660,224.973 158.200 C 225.339 159.740,225.895 161.990,226.208 163.200 C 227.242 167.196,228.400 172.332,228.400 172.920 C 228.400 174.321,211.818 174.524,210.958 173.132 C 210.738 172.777,211.928 170.283,214.372 165.978 C 215.052 164.780,216.067 162.900,216.627 161.800 C 217.186 160.700,217.965 159.260,218.356 158.600 C 218.748 157.940,219.665 156.320,220.394 155.000 C 222.363 151.436,222.825 151.254,223.699 153.700 M179.657 161.500 C 179.454 161.885,178.900 163.730,178.427 165.600 C 177.954 167.470,177.296 170.063,176.965 171.361 C 176.550 172.988,176.491 173.851,176.776 174.136 C 177.294 174.654,187.411 175.685,188.893 175.371 L 189.985 175.140 189.191 173.670 C 188.754 172.861,188.061 171.750,187.651 171.200 C 186.497 169.651,184.000 165.694,184.000 165.413 C 184.000 163.462,180.357 160.179,179.657 161.500 M181.614 163.300 C 182.907 164.676,188.000 173.025,188.000 173.768 C 188.000 174.347,187.405 174.411,182.900 174.312 L 177.800 174.200 177.847 172.000 C 177.887 170.070,178.606 166.393,179.351 164.300 C 179.488 163.915,179.684 163.330,179.787 163.000 C 180.051 162.157,180.630 162.253,181.614 163.300 M217.102 207.100 C 217.214 208.145,217.449 209.279,217.624 209.620 C 217.799 209.960,218.514 212.660,219.213 215.620 C 222.126 227.955,229.700 258.573,231.559 265.527 C 233.223 271.758,234.415 273.448,238.460 275.323 C 244.010 277.895,250.694 273.211,251.763 265.998 C 251.910 265.009,252.206 263.480,252.421 262.600 C 253.229 259.300,251.626 256.567,231.961 227.700 C 229.766 224.477,228.369 222.109,227.059 219.386 C 226.526 218.279,225.809 217.140,225.467 216.855 C 225.124 216.571,224.321 215.497,223.683 214.469 C 223.044 213.441,221.488 210.935,220.225 208.900 C 217.605 204.679,216.792 204.211,217.102 207.100 M219.405 208.810 C 220.098 210.233,228.812 223.977,233.180 230.538 C 235.501 234.024,238.210 238.109,239.200 239.617 C 240.190 241.125,243.126 245.534,245.725 249.416 C 252.789 259.965,252.765 259.887,251.023 266.578 C 248.796 275.127,241.387 278.073,235.696 272.673 C 233.655 270.736,231.793 265.906,230.772 259.901 C 230.594 258.857,230.344 257.834,230.217 257.628 C 230.090 257.422,229.826 256.476,229.632 255.527 C 229.437 254.577,228.911 252.360,228.462 250.600 C 228.014 248.840,226.912 244.340,226.013 240.600 C 225.114 236.860,224.202 233.170,223.987 232.400 C 223.593 230.993,222.930 228.262,222.530 226.400 C 222.412 225.850,221.907 223.960,221.407 222.200 C 220.908 220.440,220.196 217.560,219.825 215.800 C 219.454 214.040,218.982 211.832,218.775 210.894 C 218.154 208.071,218.495 206.942,219.405 208.810 M206.994 288.437 C 187.119 308.476,168.117 319.588,153.704 319.602 C 148.110 319.608,147.979 319.791,147.976 327.631 C 147.973 334.396,148.940 344.120,150.060 348.600 C 151.972 356.243,152.450 357.730,154.500 362.387 C 154.932 363.370,155.454 364.617,155.660 365.157 C 159.837 376.145,171.286 388.416,182.600 394.034 C 184.800 395.126,186.794 396.277,187.030 396.591 C 187.272 396.911,187.814 397.069,188.268 396.950 C 189.580 396.607,194.871 398.387,195.096 399.247 C 195.269 399.908,195.718 399.979,199.432 399.934 C 204.005 399.878,204.590 399.461,200.709 399.022 C 181.052 396.798,163.536 382.445,154.796 361.400 C 153.716 358.798,152.400 354.880,152.400 354.265 C 152.400 353.870,152.215 353.202,151.989 352.779 C 150.544 350.079,148.445 335.753,148.417 328.397 C 148.391 321.398,148.828 320.423,152.000 320.399 C 155.513 320.372,163.289 318.811,167.400 317.305 C 180.221 312.611,191.842 304.471,206.911 289.628 C 209.942 286.643,212.680 284.143,212.995 284.074 C 213.309 284.004,215.869 286.261,218.684 289.089 C 221.498 291.916,224.713 295.033,225.829 296.015 C 231.782 301.254,233.305 302.545,235.834 304.496 C 242.181 309.392,254.097 316.400,256.075 316.400 C 256.386 316.400,256.811 316.563,257.020 316.763 C 257.678 317.392,265.996 319.601,267.600 319.573 C 268.150 319.564,267.340 319.218,265.800 318.805 C 254.285 315.719,244.338 310.669,235.342 303.344 C 234.494 302.654,232.702 301.214,231.361 300.144 C 230.019 299.075,225.430 294.825,221.163 290.700 C 216.895 286.575,213.130 283.200,212.796 283.200 C 212.462 283.200,209.851 285.557,206.994 288.437 M270.000 319.970 C 270.550 320.163,271.842 320.338,272.871 320.360 C 276.123 320.429,276.127 320.441,275.877 330.376 C 275.669 338.685,275.195 342.910,273.790 349.000 C 273.434 350.540,272.984 352.520,272.789 353.400 C 272.594 354.280,272.051 355.990,271.583 357.200 C 271.115 358.410,270.378 360.390,269.945 361.600 C 268.763 364.899,267.692 367.130,265.961 369.890 C 265.102 371.260,264.400 372.457,264.400 372.550 C 264.400 374.727,254.160 385.636,248.121 389.891 C 245.843 391.496,236.464 396.000,235.399 396.000 C 235.124 396.000,234.674 396.270,234.400 396.600 C 234.126 396.930,233.294 397.200,232.551 397.200 C 231.617 397.200,231.200 397.385,231.200 397.800 C 231.200 398.629,235.020 398.651,235.482 397.824 C 235.699 397.437,236.620 397.220,238.302 397.159 C 239.676 397.109,240.800 396.918,240.800 396.734 C 240.800 396.550,241.244 396.400,241.787 396.400 C 242.488 396.400,242.710 396.231,242.551 395.817 C 242.402 395.428,242.672 395.147,243.364 394.973 C 243.934 394.830,244.400 394.565,244.400 394.384 C 244.400 394.202,244.791 393.930,245.269 393.778 C 245.747 393.626,246.332 393.343,246.569 393.147 C 246.806 392.952,248.594 391.676,250.543 390.311 C 253.991 387.896,259.913 382.043,261.005 379.970 C 261.304 379.404,262.100 378.350,262.774 377.628 C 263.448 376.906,264.003 376.109,264.006 375.858 C 264.010 375.606,264.572 374.770,265.256 374.000 C 267.788 371.150,271.600 364.137,271.600 362.330 C 271.600 361.708,271.800 361.200,272.045 361.200 C 272.349 361.200,272.401 360.603,272.209 359.321 C 271.965 357.692,272.006 357.507,272.517 357.931 C 273.168 358.471,273.600 357.848,273.600 356.367 C 273.600 355.945,273.780 355.600,274.000 355.600 C 274.220 355.600,274.400 355.278,274.400 354.884 C 274.400 354.490,274.674 353.118,275.008 351.834 C 275.464 350.084,275.503 349.365,275.163 348.956 C 274.565 348.235,275.047 346.400,275.834 346.400 C 276.353 346.400,276.440 345.805,276.376 342.700 C 276.334 340.665,276.491 336.570,276.726 333.600 C 277.652 321.875,277.022 319.960,272.171 319.754 C 270.010 319.662,269.319 319.731,270.000 319.970 M240.556 395.829 C 240.724 396.268,240.596 396.419,240.132 396.329 C 239.766 396.258,239.391 395.975,239.300 395.700 C 239.055 394.965,240.272 395.090,240.556 395.829 M226.657 398.995 C 226.488 399.436,226.658 399.548,227.314 399.425 C 227.801 399.334,228.425 399.246,228.700 399.230 C 228.975 399.213,229.200 399.020,229.200 398.800 C 229.200 398.159,226.911 398.334,226.657 398.995 " stroke="none" fill="#a7bab2" fill-rule="evenodd"></path></g></svg>